<svg version="1.1" id="Layer_1" xmlns="http://www.w3.org/2000/svg" xmlns:xlink="http://www.w3.org/1999/xlink" x="0px" y="0px"
	 width="100%" viewBox="0 0 2671 1149" enable-background="new 0 0 2671 1149" xml:space="preserve">
<path fill="#FFFFFF" opacity="1.000000" stroke="none" 
	d="
M2672.000000,760.000000 
	C2672.000000,780.029358 2672.000000,800.058777 2671.602539,820.395508 
	C2663.865723,820.702881 2656.526123,820.702881 2648.701416,820.702881 
	C2648.701416,833.779419 2648.701416,846.811646 2648.701416,860.069885 
	C2647.550537,859.895996 2646.780518,859.997437 2646.291992,859.673828 
	C2636.104980,852.923096 2624.984131,850.762573 2612.859131,851.910645 
	C2598.112061,853.307007 2586.251221,859.483582 2576.614014,870.759460 
	C2565.703125,883.525940 2563.062500,898.540283 2565.384521,914.202026 
	C2567.655762,929.521423 2575.949707,941.820312 2589.522461,949.992188 
	C2606.544434,960.240906 2624.478760,961.227356 2641.884277,952.249939 
	C2657.374023,944.260559 2667.771729,931.438721 2670.077393,913.294800 
	C2670.474854,910.165588 2671.347168,907.096741 2672.000000,904.000000 
	C2672.000000,985.982544 2672.000000,1067.965088 2672.000000,1150.000000 
	C2109.303955,1150.000000 1546.607910,1150.000000 983.737671,1149.688965 
	C1001.112732,1148.585205 1018.660095,1147.747925 1036.211914,1147.016846 
	C1046.495728,1146.588623 1056.788940,1146.384033 1067.073608,1145.973267 
	C1073.198242,1145.728760 1079.318848,1145.338501 1085.433960,1144.910645 
	C1098.801270,1143.975342 1112.161255,1142.931641 1125.529785,1142.013428 
	C1136.433716,1141.264282 1147.358887,1140.794800 1158.250854,1139.909424 
	C1172.415649,1138.757812 1186.550781,1137.248535 1200.709839,1136.021240 
	C1213.563843,1134.906982 1226.450073,1134.143555 1239.290527,1132.899292 
	C1254.247192,1131.449585 1269.177124,1129.709595 1284.104248,1127.972656 
	C1293.930420,1126.829468 1301.859863,1122.182373 1308.218018,1114.612183 
	C1314.894287,1106.663696 1316.965820,1097.259644 1316.937866,1087.283325 
	C1316.916626,1079.661377 1316.092407,1072.042358 1316.045898,1064.419556 
	C1315.914551,1042.920654 1316.000000,1021.420593 1316.000000,999.920959 
	C1316.000000,998.141052 1316.000000,996.361206 1316.000000,994.509521 
	C1290.762573,991.378479 1266.148438,988.324707 1240.906006,985.193054 
	C1240.906006,1009.322815 1240.906006,1032.902832 1240.906006,1056.986694 
	C1226.764771,1058.357666 1213.145020,1059.769287 1199.506714,1060.969238 
	C1189.945679,1061.810547 1180.351440,1062.268555 1170.786011,1063.065796 
	C1155.961060,1064.301514 1141.158203,1065.808472 1126.327393,1066.962646 
	C1111.476440,1068.118408 1096.609131,1069.093750 1081.737549,1069.947144 
	C1062.213989,1071.067627 1042.684204,1072.112305 1023.147095,1072.957031 
	C1010.202393,1073.516968 997.239868,1073.657593 984.286316,1074.023682 
	C983.141174,1074.056030 982.005066,1074.517456 980.862732,1074.526855 
	C971.062439,1074.607178 961.195251,1075.364624 951.477722,1074.485474 
	C938.844421,1073.342407 926.357117,1070.673096 913.755798,1069.061279 
	C903.875854,1067.797485 894.353638,1066.407349 890.193298,1055.430908 
	C889.726013,1054.198120 889.183105,1052.863403 888.294983,1051.942993 
	C884.404968,1047.911865 886.768860,1045.236450 890.030151,1042.550293 
	C903.952576,1031.083130 914.807434,1017.041626 922.396362,1000.835205 
	C931.203430,982.027405 933.140991,962.212524 929.100525,941.632690 
	C922.398682,907.496887 904.210938,882.103760 873.239319,866.129211 
	C849.182434,853.721252 823.005249,849.501831 796.453247,848.228882 
	C778.389954,847.362915 760.211731,848.378540 742.105286,849.078003 
	C725.970032,849.701233 710.297913,853.103394 695.246704,859.066101 
	C672.066101,868.249268 655.607422,884.042297 647.895630,908.094727 
	C639.400574,934.589783 637.506653,961.744324 642.181274,989.066040 
	C646.144287,1012.228088 657.891052,1031.234497 677.171570,1044.960083 
	C687.266296,1052.146484 698.017700,1058.410522 708.658508,1065.209961 
	C708.531372,1065.632568 708.313293,1066.421875 708.057434,1067.198853 
	C705.488037,1075.000488 705.480164,1075.202026 697.476501,1074.958618 
	C680.063477,1074.428955 662.656067,1073.703369 645.248779,1072.998413 
	C629.838013,1072.374390 614.427856,1071.725464 599.022461,1070.982910 
	C587.109131,1070.408691 575.204529,1069.655884 563.294434,1069.013062 
	C544.431702,1067.994995 525.566956,1067.016235 506.704742,1065.989868 
	C501.413971,1065.701904 496.124329,1065.365601 490.842316,1064.948242 
	C474.521912,1063.658813 458.201447,1062.366943 441.889404,1060.977173 
	C434.693512,1060.364014 427.517883,1059.512939 420.348511,1058.771484 
	C420.197418,1057.573975 419.981018,1056.909790 420.053741,1056.278931 
	C421.338806,1045.126465 422.832397,1033.995117 423.932617,1022.824829 
	C425.747345,1004.400940 427.431946,985.962280 428.949493,967.511536 
	C430.441376,949.373108 431.774841,931.219727 432.960449,913.058655 
	C434.115082,895.371826 435.095490,877.671997 435.971161,859.968933 
	C437.317871,832.743164 430.686584,807.664124 415.042664,785.209595 
	C408.981049,776.509094 401.106415,769.609131 391.377502,765.304260 
	C372.881195,757.119934 353.737244,757.251343 334.392242,761.762817 
	C311.682739,767.058899 291.933075,778.743591 272.742615,791.245911 
	C244.879028,809.398682 214.790558,817.275574 181.615128,814.108521 
	C161.456467,812.184143 142.580582,806.644165 125.349052,796.078186 
	C101.223221,781.284668 83.629379,761.249939 77.554489,732.861877 
	C74.972389,720.795654 74.110062,708.431885 78.818687,696.580566 
	C84.482552,682.324890 96.899536,675.733582 110.231316,670.920959 
	C135.680847,661.733887 162.336914,660.608826 189.045517,659.892334 
	C195.315720,659.724121 200.546371,661.379883 204.960007,665.514709 
	C217.937515,677.672607 230.563614,690.215088 243.767853,702.118347 
	C254.829575,712.090271 266.064728,721.976013 278.009674,730.840027 
	C303.657379,749.872437 333.037750,747.106323 359.418152,732.020630 
	C368.626312,726.754822 377.181549,720.099609 386.830566,715.912231 
	C400.311279,710.062073 409.340210,700.315918 415.965363,687.905640 
	C423.441895,673.900513 426.794434,658.466309 430.940643,643.267578 
	C436.451508,623.066467 436.446014,602.686707 434.984772,582.109436 
	C433.589630,562.463013 432.346069,542.805908 430.989258,523.156677 
	C430.350861,513.911804 429.700897,504.665833 428.881714,495.435883 
	C427.669373,481.775757 426.268585,468.132477 425.012390,454.476074 
	C424.239655,446.075897 423.738098,437.648621 422.846375,429.262054 
	C421.345062,415.143158 419.603668,401.049957 418.023956,386.939148 
	C417.632019,383.438202 417.472443,379.911194 417.161133,375.803467 
	C426.781219,376.569946 435.651581,377.433868 444.542084,377.952576 
	C463.566101,379.062561 482.599365,380.016388 501.631104,380.990936 
	C515.371521,381.694550 529.113708,382.367615 542.858337,382.983185 
	C558.765320,383.695587 574.674805,384.357971 590.585205,384.990723 
	C608.159546,385.689636 625.732361,386.470032 643.312988,386.957916 
	C661.595825,387.465271 679.887634,387.646027 698.174316,388.026215 
	C700.309509,388.070587 702.432739,388.610260 704.569397,388.680817 
	C707.876587,388.790009 711.257019,389.116364 714.490051,388.609131 
	C727.837402,386.515076 739.699768,380.938873 750.745728,373.187317 
	C768.244385,360.907501 777.431641,343.993683 778.907593,323.000092 
	C780.350769,302.473663 773.470032,283.899811 762.435059,267.149384 
	C753.258911,253.220367 742.522461,240.318817 732.468140,226.968903 
	C717.362183,206.911545 710.815186,184.495300 715.381958,159.642151 
	C719.890564,135.105545 733.784302,116.041473 753.445801,101.446121 
	C782.706421,79.724976 815.973206,72.683289 851.838562,76.981575 
	C875.826904,79.856445 888.116638,93.868439 894.047058,115.350533 
	C898.987610,133.247116 900.512878,151.513535 899.877197,169.978958 
	C899.802063,172.160873 898.509827,174.716141 896.988770,176.368286 
	C883.037170,191.521973 865.426270,202.049362 848.973999,214.054245 
	C839.885803,220.685730 829.952942,226.623093 822.344055,234.703247 
	C812.429321,245.232208 808.579041,259.158722 808.086487,273.592468 
	C807.643066,286.584717 810.865601,299.029816 816.891663,310.436096 
	C823.393005,322.742096 831.086365,334.414001 837.740540,346.644958 
	C843.013428,356.336945 850.708191,363.173889 860.745239,366.901611 
	C871.255249,370.805023 882.053223,374.140137 892.964783,376.705536 
	C908.566284,380.373596 924.172729,384.466003 940.537720,383.060150 
	C951.919922,382.082336 963.346252,381.579315 974.760925,381.029572 
	C990.498962,380.271637 1006.246826,379.718903 1021.986145,378.985046 
	C1034.565552,378.398529 1047.140625,377.714508 1059.713379,376.998596 
	C1076.579346,376.038177 1093.444946,375.066986 1110.303345,373.984497 
	C1124.339478,373.083252 1138.362793,371.983215 1152.395752,371.028809 
	C1167.756348,369.984070 1183.126465,369.072479 1198.482178,367.962585 
	C1204.075684,367.558289 1209.629517,366.621521 1215.220459,366.159698 
	C1221.923340,365.606018 1228.646729,365.300323 1236.176514,364.837067 
	C1236.176514,378.326965 1236.176514,391.025421 1236.176514,404.273926 
	C1261.505493,402.295959 1286.016846,400.381836 1310.515869,398.468658 
	C1310.700684,397.776276 1310.940430,397.305328 1310.935181,396.837128 
	C1310.632202,370.049866 1310.315796,343.262787 1309.959839,316.476227 
	C1309.947021,315.512634 1309.576904,314.539062 1309.288696,313.596008 
	C1302.746216,292.187775 1285.521484,283.629974 1264.071411,286.129242 
	C1252.262451,287.505127 1240.449707,288.888611 1228.610107,289.950836 
	C1215.098633,291.163025 1201.549316,291.948730 1188.027344,293.051544 
	C1168.582642,294.637390 1149.155884,296.449432 1129.705811,297.961792 
	C1114.688965,299.129425 1099.651978,300.052032 1084.616577,300.961761 
	C1066.757568,302.042328 1048.892822,303.030731 1031.026611,303.986908 
	C1017.454163,304.713257 1003.878845,305.401428 990.299194,305.972076 
	C972.560120,306.717468 954.795654,308.135437 937.080811,307.697266 
	C926.492615,307.435364 915.961426,304.264008 905.443298,302.202789 
	C902.803223,301.685394 899.321411,301.160980 897.935364,299.339447 
	C893.475464,293.477997 889.814148,287.009003 885.636719,280.447357 
	C894.516479,274.196899 902.910706,268.316895 911.274963,262.394562 
	C929.169983,249.723969 946.620422,236.543625 959.804565,218.657715 
	C967.704163,207.940903 973.910889,196.165344 974.753235,182.830490 
	C975.556458,170.114197 974.333252,157.270721 974.017761,144.482742 
	C973.606995,127.837273 970.314575,111.648590 965.923157,95.686264 
	C960.631531,76.451630 952.423035,58.501392 939.521057,43.162376 
	C922.836975,23.326887 901.490479,10.784464 876.217041,5.058022 
	C869.198547,3.467765 862.075256,2.339965 855.000000,1.000000 
	C1460.564087,1.000000 2066.128174,1.000000 2672.000000,1.000000 
	C2672.000000,205.362610 2672.000000,409.725372 2671.614258,614.396179 
	C2671.137207,613.047119 2671.322998,611.317749 2670.912842,609.743835 
	C2665.261719,588.066101 2655.075684,569.209473 2637.371094,554.799133 
	C2614.493896,536.178528 2588.611816,528.299316 2559.158203,530.838928 
	C2545.612549,532.006836 2533.276855,536.146545 2521.439941,542.273560 
	C2517.035889,544.553162 2513.017578,547.577576 2508.598633,550.406067 
	C2507.939697,549.247986 2507.100342,548.446045 2507.074707,547.619019 
	C2506.905273,542.151123 2504.203857,540.306030 2498.873535,540.911743 
	C2494.925293,541.360474 2490.884766,541.000000 2486.885498,541.000000 
	C2479.631104,541.000000 2472.376709,541.000000 2465.339844,541.000000 
	C2465.339844,614.406372 2465.339844,687.134460 2465.339844,759.649536 
	C2481.084473,759.649536 2496.487305,759.649536 2512.000000,759.649536 
	C2512.000000,717.145813 2511.970947,674.992371 2512.045166,632.839172 
	C2512.052734,628.588318 2512.176270,624.223511 2513.108398,620.106812 
	C2519.085938,593.707092 2540.793213,577.209167 2567.117432,576.106140 
	C2581.728760,575.493958 2595.118652,580.273010 2606.082031,589.832214 
	C2617.605713,599.879700 2624.969482,612.573059 2624.985596,628.490845 
	C2625.028076,670.484253 2625.000000,712.477722 2625.000000,754.471130 
	C2625.000000,756.237000 2625.000000,758.002930 2625.000000,760.000000 
	C2641.051514,760.000000 2656.525635,760.000000 2672.000000,760.000000 
M1333.071289,759.467957 
	C1329.440796,766.079346 1326.786011,773.517029 1322.009033,779.157471 
	C1302.546143,802.138306 1277.405762,812.238403 1247.526123,807.796997 
	C1227.068359,804.756104 1210.158203,794.455322 1197.401855,777.871582 
	C1195.174805,774.976257 1193.424805,770.023926 1190.830200,769.567078 
	C1188.125488,769.090881 1184.624268,772.840576 1181.543335,774.852905 
	C1171.585327,781.356812 1161.660522,787.911377 1151.650269,794.494202 
	C1160.391357,807.363525 1169.775635,818.915039 1181.682861,828.104492 
	C1204.334351,845.585815 1230.262207,854.091980 1258.688354,854.871094 
	C1265.834961,855.066956 1273.025269,853.668518 1280.195557,853.002014 
	C1292.053711,851.899780 1303.260620,848.346985 1314.004517,843.443970 
	C1331.470093,835.473633 1346.146729,823.926636 1358.515015,809.123840 
	C1375.517212,788.775452 1384.469116,765.175781 1384.761841,739.154724 
	C1385.486938,674.682617 1385.000000,610.196838 1385.000000,545.716553 
	C1385.000000,544.266479 1385.000000,542.816406 1385.000000,541.001831 
	C1371.769653,541.001831 1358.978394,540.891907 1346.197021,541.196960 
	C1345.097900,541.223206 1343.569458,543.862427 1343.101074,545.529663 
	C1342.042969,549.295227 1341.523560,553.212097 1340.682861,557.600647 
	C1338.636963,556.248108 1337.321045,555.341187 1335.969360,554.490967 
	C1330.510010,551.056702 1325.342041,546.966858 1319.514160,544.348328 
	C1304.576294,537.636719 1288.938354,533.583923 1272.508545,531.751404 
	C1258.045166,530.138184 1243.940308,531.204956 1230.113892,534.574463 
	C1202.655273,541.266235 1179.682861,555.454346 1161.755005,577.656494 
	C1145.268677,598.073425 1137.106445,621.530640 1136.209229,647.422546 
	C1135.896240,656.457092 1137.343750,665.705261 1139.117188,674.631348 
	C1144.723755,702.851013 1159.541382,725.534485 1182.269287,742.990601 
	C1200.150635,756.724304 1220.093628,765.656616 1242.764282,768.063477 
	C1260.854126,769.984070 1278.674072,769.580322 1296.302124,764.375793 
	C1311.002075,760.035889 1324.329102,753.149841 1337.374390,743.598816 
	C1335.988892,749.263916 1334.812622,754.073730 1333.071289,759.467957 
M1653.437622,541.000000 
	C1642.459229,541.000000 1631.480835,541.000000 1620.423340,541.000000 
	C1619.263672,546.557983 1618.153564,551.878418 1617.024902,557.287354 
	C1610.387695,553.149597 1604.890015,549.075928 1598.858276,546.076111 
	C1575.231567,534.325562 1550.395142,529.192322 1523.841309,531.821289 
	C1508.793579,533.311035 1494.534546,537.043884 1481.130249,543.556763 
	C1463.361572,552.190125 1448.160767,564.138489 1436.137207,580.187622 
	C1423.091309,597.601501 1415.185425,617.026733 1413.197510,638.421204 
	C1410.970459,662.390198 1415.144287,685.442078 1427.248779,706.720520 
	C1439.194458,727.719788 1455.870117,743.813965 1477.189331,754.961670 
	C1496.392822,765.003113 1516.836060,769.469116 1538.677856,769.207031 
	C1558.634888,768.967590 1577.226196,764.517761 1594.827393,755.538879 
	C1600.937988,752.421631 1606.655396,748.533447 1612.957642,744.754333 
	C1612.957642,746.183044 1613.233032,747.264404 1612.914307,748.125854 
	C1610.245728,755.338867 1608.168213,762.884094 1604.583008,769.621765 
	C1596.014526,785.724243 1582.706543,796.645630 1565.597412,803.125366 
	C1552.556763,808.064331 1539.268433,810.261597 1525.446533,807.963074 
	C1515.890259,806.373901 1506.709229,803.699280 1498.176392,798.778809 
	C1486.299683,791.930054 1476.857544,782.767822 1469.501099,771.252380 
	C1468.859985,770.248779 1465.845215,769.534058 1464.874634,770.155640 
	C1453.447876,777.474243 1442.156250,785.009094 1430.983032,792.710205 
	C1429.992554,793.392944 1429.216309,796.275879 1429.796997,797.064636 
	C1438.116211,808.365906 1446.918823,819.113708 1458.178467,827.888062 
	C1481.500732,846.062744 1508.062866,854.446045 1537.158447,854.768311 
	C1547.470337,854.882629 1557.955078,853.008911 1568.108521,850.853333 
	C1587.194336,846.801392 1604.411255,838.244995 1619.000244,825.309265 
	C1633.130615,812.780090 1645.245239,798.610046 1652.311523,780.519714 
	C1657.019531,768.466492 1660.775635,756.179688 1660.841797,743.394531 
	C1661.182739,677.415955 1661.001587,611.434814 1660.989990,545.454529 
	C1660.989746,544.024048 1660.837036,542.593628 1660.746216,541.000000 
	C1658.386841,541.000000 1656.403809,541.000000 1653.437622,541.000000 
M653.977905,724.466309 
	C660.845947,731.001526 667.249817,738.128052 674.673706,743.955078 
	C693.006409,758.344421 714.180115,766.805420 737.275024,768.687256 
	C750.296875,769.748230 763.719543,768.668152 776.705261,766.784485 
	C799.851929,763.427002 819.850525,752.466980 837.192566,737.105835 
	C850.483826,725.332886 860.574097,711.010742 867.276794,694.370178 
	C876.110657,672.438965 878.521057,649.800659 873.776794,626.784302 
	C868.237061,599.908386 854.279785,577.532104 833.300476,560.012024 
	C812.365784,542.529358 787.685791,533.221619 760.598389,531.153870 
	C744.719238,529.941711 728.989319,531.971619 713.598511,536.673523 
	C699.763733,540.900024 687.239197,547.539673 674.874512,556.068726 
	C674.874512,523.724182 674.874512,492.010925 674.874512,460.267456 
	C658.748047,460.267456 643.014893,460.267456 627.000122,460.267456 
	C627.000122,461.503845 627.000122,462.474426 627.000122,463.445007 
	C627.000061,525.928955 626.922424,588.413086 627.104187,650.896484 
	C627.125488,658.211548 628.075684,665.619019 629.462341,672.816589 
	C633.126892,691.837585 641.482178,708.781616 653.977905,724.466309 
M1811.546143,769.000000 
	C1827.499146,769.526367 1843.189697,768.520874 1858.507080,763.231628 
	C1879.943115,755.829529 1898.308716,744.231140 1913.487915,727.168823 
	C1933.202148,705.008972 1942.067505,678.955994 1942.876953,649.833618 
	C1943.052490,643.521667 1942.482788,636.943359 1940.825806,630.878540 
	C1937.618408,619.139526 1934.525024,607.137817 1929.314331,596.234253 
	C1922.225342,581.399780 1911.671387,568.611084 1898.204712,558.942139 
	C1888.938965,552.289490 1879.238770,545.776245 1868.836182,541.271423 
	C1848.392090,532.418274 1826.827759,529.196472 1804.400513,531.872192 
	C1790.447510,533.536865 1777.076782,536.758057 1764.514404,542.959106 
	C1756.640625,546.845703 1749.037842,551.281128 1740.916260,555.685730 
	C1740.916260,523.892578 1740.916260,492.042328 1740.916260,460.318665 
	C1724.977295,460.318665 1709.576538,460.318665 1694.000000,460.318665 
	C1694.000000,462.452179 1694.000000,464.270660 1694.000000,466.089142 
	C1694.000000,522.906860 1693.894409,579.724976 1694.090332,636.542053 
	C1694.128906,647.710999 1694.173340,659.103638 1696.311768,669.980957 
	C1698.614380,681.693237 1702.175781,693.503967 1707.355591,704.224426 
	C1715.320923,720.710266 1727.473511,734.322571 1742.537231,744.960144 
	C1762.915039,759.350281 1785.295410,768.324707 1811.546143,769.000000 
M2184.403076,665.917480 
	C2184.932617,668.439880 2185.532715,670.949768 2185.980469,673.486572 
	C2190.915771,701.456787 2205.894287,723.655090 2227.205078,741.347290 
	C2242.296875,753.876587 2259.842285,762.409241 2279.493408,766.288635 
	C2301.579346,770.648743 2323.389648,770.578003 2344.969238,763.992126 
	C2369.358154,756.549011 2389.877197,743.234253 2406.195312,723.416748 
	C2416.369385,711.060791 2422.907227,696.918213 2428.708740,682.000061 
	C2412.266602,682.000061 2396.267822,681.928711 2380.271973,682.115723 
	C2378.753906,682.133484 2376.616943,683.397766 2375.845703,684.714783 
	C2368.158203,697.845764 2357.538574,708.016602 2344.124023,714.860901 
	C2331.153076,721.478821 2317.304932,724.318359 2302.457275,723.200439 
	C2291.549072,722.379089 2281.315430,719.797974 2271.832764,714.856018 
	C2258.170654,707.736084 2246.967041,697.587402 2239.531250,683.910767 
	C2235.574219,676.632263 2231.896973,669.062988 2232.006592,659.925293 
	C2298.845947,659.925293 2365.256836,659.925293 2432.462158,659.925293 
	C2431.956543,651.942688 2431.510254,644.404724 2430.995117,636.871521 
	C2430.157227,624.625977 2426.504395,613.116028 2421.498291,602.023682 
	C2412.975830,583.139954 2399.865234,568.022339 2383.277100,555.736206 
	C2362.944336,540.676208 2340.044434,532.466675 2314.950684,531.143860 
	C2294.752930,530.079041 2275.227783,533.490906 2256.384521,541.669800 
	C2240.999512,548.347778 2227.905518,557.980286 2216.236816,569.528564 
	C2206.528076,579.137146 2198.849854,590.510254 2193.398193,603.171082 
	C2188.457031,614.647217 2184.976074,626.603394 2184.116699,639.076599 
	C2183.522217,647.700928 2184.022705,656.400635 2184.403076,665.917480 
M1103.000000,736.500000 
	C1103.000000,671.417786 1103.000000,606.335571 1103.000000,541.291016 
	C1087.033813,541.291016 1071.633423,541.291016 1056.000000,541.291016 
	C1056.000000,543.390503 1056.000000,545.200806 1056.000000,547.011108 
	C1056.000000,587.500732 1055.976685,627.990295 1056.010254,668.479919 
	C1056.025879,687.400879 1047.642456,701.865112 1032.649780,712.829651 
	C1018.609924,723.097473 1002.851440,725.573853 986.217712,721.900574 
	C972.305237,718.828369 960.601257,711.546570 952.434814,699.722046 
	C946.494690,691.121033 942.861450,681.588318 942.916260,670.692383 
	C943.124146,629.370667 943.000000,588.047363 943.000000,546.724609 
	C943.000000,544.940186 943.000000,543.155762 943.000000,541.228638 
	C926.826843,541.228638 911.093994,541.228638 895.000000,541.228638 
	C895.000000,543.246155 895.000000,545.040344 895.000000,546.834595 
	C895.000000,586.491089 894.890564,626.148132 895.091736,665.803589 
	C895.132324,673.807800 895.501465,681.988708 897.179077,689.773499 
	C902.702942,715.407654 916.524109,735.928650 938.000427,750.903503 
	C951.377808,760.231140 966.264282,766.223022 982.692993,768.066833 
	C996.012024,769.561707 1009.391602,770.359802 1022.378845,766.845276 
	C1033.791260,763.756836 1044.824219,759.266541 1056.026367,755.394775 
	C1056.227905,768.957458 1053.551514,782.792236 1044.197998,794.041565 
	C1032.872681,807.662292 1016.691406,809.514954 1000.312256,809.035583 
	C1000.312256,824.678467 1000.312256,839.746643 1000.312256,855.657898 
	C1009.658997,854.748596 1018.655945,854.153687 1027.570923,852.951111 
	C1050.114990,849.909973 1068.773193,839.739624 1082.803345,821.653748 
	C1095.831299,804.859863 1101.944702,785.506958 1102.929688,764.489746 
	C1103.350464,755.511780 1103.000000,746.497681 1103.000000,736.500000 
M2078.000000,748.482544 
	C2078.000000,752.251465 2078.000000,756.020325 2078.000000,759.703979 
	C2093.982178,759.703979 2109.379883,759.703979 2125.163818,759.703979 
	C2125.163818,702.026672 2125.163818,644.644348 2125.163818,586.851929 
	C2143.617188,586.851929 2161.683594,586.851929 2179.714844,586.851929 
	C2179.714844,571.373413 2179.714844,556.309265 2179.714844,540.836426 
	C2161.367188,540.836426 2143.300781,540.836426 2124.834961,540.836426 
	C2124.834961,513.697693 2124.834961,486.969147 2124.834961,460.290924 
	C2109.028076,460.290924 2093.630615,460.290924 2077.829590,460.290924 
	C2077.829590,487.308014 2077.829590,514.036560 2077.829590,541.177917 
	C2070.353760,541.177917 2063.279053,541.177917 2056.302979,541.177917 
	C2056.302979,556.662964 2056.302979,571.727539 2056.302979,587.205566 
	C2063.675049,587.205566 2070.750977,587.205566 2078.000000,587.205566 
	C2078.000000,640.912292 2078.000000,694.200500 2078.000000,748.482544 
M2023.000000,576.500000 
	C2023.000000,564.738953 2023.000000,552.977844 2023.000000,541.304810 
	C2007.005371,541.304810 1991.604980,541.304810 1976.296143,541.304810 
	C1976.296143,614.331421 1976.296143,687.052795 1976.296143,759.695251 
	C1991.994507,759.695251 2007.394897,759.695251 2023.000000,759.695251 
	C2023.000000,698.760498 2023.000000,638.130249 2023.000000,576.500000 
M2318.467041,927.965820 
	C2325.815430,942.790100 2337.471191,952.110474 2353.548584,956.294006 
	C2369.558838,960.460022 2384.051514,956.904968 2397.839600,948.116089 
	C2397.987549,950.429260 2398.090820,952.044495 2398.196289,953.693970 
	C2405.533936,953.693970 2412.606445,953.693970 2419.012207,953.693970 
	C2419.012207,935.988220 2419.262695,918.589905 2418.938232,901.202332 
	C2418.643311,885.389404 2411.734131,872.699524 2399.378174,862.841614 
	C2382.497314,849.373596 2358.557373,847.615234 2340.137695,858.074829 
	C2315.161377,872.257690 2306.419922,901.805664 2318.467041,927.965820 
M2009.049683,954.544800 
	C2012.685303,955.385742 2016.287720,956.429565 2019.962280,957.033630 
	C2039.711426,960.280273 2055.801025,953.719482 2068.793213,938.747070 
	C2084.662109,920.459534 2085.190674,893.217346 2071.555908,874.168945 
	C2059.722168,857.636780 2043.496216,850.221313 2022.894653,851.859131 
	C2009.797852,852.900330 1998.480469,857.880371 1989.837402,867.034424 
	C1974.347412,883.440063 1970.494629,903.279480 1978.384766,924.370056 
	C1983.657959,938.465820 1993.494385,949.126404 2009.049683,954.544800 
M1864.000000,880.500000 
	C1864.000000,904.915405 1864.000000,929.330811 1864.000000,953.610107 
	C1871.742432,953.610107 1878.799927,953.610107 1885.790039,953.610107 
	C1885.889771,952.892578 1885.975220,952.564514 1885.975464,952.236450 
	C1885.988159,933.576965 1885.723999,914.910706 1886.191162,896.262817 
	C1886.306763,891.644714 1887.975952,886.600281 1890.358154,882.602234 
	C1895.148560,874.562378 1905.889160,871.123474 1914.469482,873.852722 
	C1924.636353,877.086609 1930.994751,885.263550 1930.998291,895.138123 
	C1931.004517,912.964661 1931.000000,930.791138 1931.000000,948.617676 
	C1931.000000,950.362366 1931.000000,952.107056 1931.000000,953.735962 
	C1938.721191,953.735962 1945.658447,953.735962 1953.000000,953.735962 
	C1953.000000,951.849304 1953.000000,950.221741 1953.000000,948.594116 
	C1953.000000,930.434387 1953.046509,912.274475 1952.955078,894.115234 
	C1952.939453,891.026001 1952.648804,887.865356 1951.943848,884.864929 
	C1948.755981,871.296753 1940.844727,861.002502 1928.283691,855.300537 
	C1914.691040,849.130371 1900.745728,848.964722 1887.366699,856.837646 
	C1886.308594,857.460327 1884.497314,858.202148 1883.752563,857.738281 
	C1877.426392,853.798279 1870.779053,857.161926 1864.000000,855.894104 
	C1864.000000,864.230896 1864.000000,871.865479 1864.000000,880.500000 
M2539.000000,890.785767 
	C2538.660156,888.697327 2538.457275,886.575623 2537.959961,884.525452 
	C2530.855225,855.251099 2497.429688,842.576904 2473.553711,856.874878 
	C2472.517822,857.495117 2470.738525,858.236389 2470.005127,857.784973 
	C2463.508545,853.787964 2456.750977,857.075073 2450.269287,856.043884 
	C2450.269287,889.061035 2450.269287,921.331360 2450.269287,953.677979 
	C2457.598633,953.677979 2464.654785,953.677979 2472.000000,953.677979 
	C2472.000000,934.548767 2472.230957,915.736145 2471.905518,896.933105 
	C2471.734131,887.023621 2478.378418,876.195923 2490.120117,873.331665 
	C2504.558105,869.809753 2517.347412,884.110046 2517.119629,893.981140 
	C2516.700195,912.137146 2517.000000,930.309692 2517.000000,948.475342 
	C2517.000000,950.234314 2517.000000,951.993286 2517.000000,953.606445 
	C2524.746826,953.606445 2531.805908,953.606445 2539.000000,953.606445 
	C2539.000000,932.718567 2539.000000,912.223938 2539.000000,890.785767 
M2186.000000,865.537354 
	C2186.000000,894.944458 2186.000000,924.351562 2186.000000,953.604736 
	C2193.754883,953.604736 2200.812012,953.604736 2208.000000,953.604736 
	C2208.000000,935.223206 2207.951660,917.236450 2208.017578,899.250122 
	C2208.059814,887.692871 2219.267822,875.919067 2230.312256,877.053711 
	C2235.124268,877.548096 2239.876221,878.627563 2244.759766,879.459106 
	C2244.759766,871.929749 2244.759766,864.175232 2244.759766,856.528625 
	C2231.359131,853.588318 2218.612549,854.422668 2207.618652,861.080200 
	C2205.642334,858.870483 2204.459717,856.327148 2203.069824,856.208374 
	C2197.513672,855.733765 2191.892822,856.012451 2186.000000,856.012451 
	C2186.000000,859.266235 2186.000000,861.908020 2186.000000,865.537354 
M2266.000000,904.500000 
	C2266.000000,920.919495 2266.000000,937.338989 2266.000000,953.605347 
	C2273.752197,953.605347 2280.809814,953.605347 2287.744385,953.605347 
	C2287.744385,908.949036 2287.744385,864.687805 2287.744385,820.306213 
	C2280.431641,820.306213 2273.376953,820.306213 2266.000000,820.306213 
	C2266.000000,848.240784 2266.000000,875.870361 2266.000000,904.500000 
M2129.724609,859.055176 
	C2128.320557,859.740784 2126.916260,860.426453 2126.130859,860.809998 
	C2124.137207,858.899048 2122.741455,856.378540 2121.103271,856.209717 
	C2115.891846,855.672424 2110.590332,856.010803 2105.327393,856.010803 
	C2105.327393,888.975159 2105.327393,921.346436 2105.327393,953.625122 
	C2112.382324,953.625122 2119.104248,953.625122 2126.000000,953.625122 
	C2126.000000,949.596741 2125.937500,945.940857 2126.010986,942.287781 
	C2126.317383,927.037903 2126.355713,911.773682 2127.101562,896.544617 
	C2127.637695,885.596008 2137.467529,876.836182 2148.446289,877.103394 
	C2153.252197,877.220398 2158.030762,878.464355 2162.642578,879.169128 
	C2162.642578,871.634277 2162.642578,863.889893 2162.642578,855.898865 
	C2156.870605,855.586792 2151.385742,854.673645 2146.033447,855.175964 
	C2140.784180,855.668701 2135.670410,857.601440 2129.724609,859.055176 
M2002.119019,496.964325 
	C2003.030396,496.643982 2003.918091,496.175964 2004.856689,496.025452 
	C2020.396362,493.533325 2029.281738,479.609283 2025.357422,463.938812 
	C2022.618896,453.003510 2012.915527,444.307770 1997.791382,444.887695 
	C1979.869263,445.574890 1969.576172,461.274963 1973.599365,477.976990 
	C1976.554321,490.244385 1986.807739,496.753235 2002.119019,496.964325 
M1759.000000,939.494995 
	C1759.000000,911.748291 1759.000000,884.001587 1759.000000,856.389343 
	C1751.258423,856.389343 1744.201172,856.389343 1737.251587,856.389343 
	C1737.251587,889.041443 1737.251587,921.303589 1737.251587,953.698486 
	C1744.560547,953.698486 1751.614380,953.698486 1759.000000,953.698486 
	C1759.000000,949.099487 1759.000000,944.795532 1759.000000,939.494995 
M1736.041504,823.056641 
	C1735.566772,827.929504 1736.803345,832.048584 1740.752563,835.321167 
	C1744.532715,838.453552 1749.273560,838.784912 1754.378784,836.235657 
	C1759.106323,833.874878 1761.104126,829.721863 1760.792114,825.042175 
	C1760.334839,818.182434 1756.907593,814.846924 1751.136108,813.995789 
	C1743.288452,812.838379 1740.342896,814.478027 1736.041504,823.056641 
z"/>
<path fill="#D1D5DB" opacity="1.000000" stroke="none" 
	d="
M854.531372,1.000000 
	C862.075256,2.339965 869.198547,3.467765 876.217041,5.058022 
	C901.490479,10.784464 922.836975,23.326887 939.521057,43.162376 
	C952.423035,58.501392 960.631531,76.451630 965.923157,95.686264 
	C970.314575,111.648590 973.606995,127.837273 974.017761,144.482742 
	C974.333252,157.270721 975.556458,170.114197 974.753235,182.830490 
	C973.910889,196.165344 967.704163,207.940903 959.804565,218.657715 
	C946.620422,236.543625 929.169983,249.723969 911.274963,262.394562 
	C902.910706,268.316895 894.516479,274.196899 885.636719,280.447357 
	C889.814148,287.009003 893.475464,293.477997 897.935364,299.339447 
	C899.321411,301.160980 902.803223,301.685394 905.443298,302.202789 
	C915.961426,304.264008 926.492615,307.435364 937.080811,307.697266 
	C954.795654,308.135437 972.560120,306.717468 990.299194,305.972076 
	C1003.878845,305.401428 1017.454163,304.713257 1031.026611,303.986908 
	C1048.892822,303.030731 1066.757568,302.042328 1084.616577,300.961761 
	C1099.651978,300.052032 1114.688965,299.129425 1129.705811,297.961792 
	C1149.155884,296.449432 1168.582642,294.637390 1188.027344,293.051544 
	C1201.549316,291.948730 1215.098633,291.163025 1228.610107,289.950836 
	C1240.449707,288.888611 1252.262451,287.505127 1264.071411,286.129242 
	C1285.521484,283.629974 1302.746216,292.187775 1309.288696,313.596008 
	C1309.576904,314.539062 1309.947021,315.512634 1309.959839,316.476227 
	C1310.315796,343.262787 1310.632202,370.049866 1310.935181,396.837128 
	C1310.940430,397.305328 1310.700684,397.776276 1310.515869,398.468658 
	C1286.016846,400.381836 1261.505493,402.295959 1236.176514,404.273926 
	C1236.176514,391.025421 1236.176514,378.326965 1236.176514,364.837067 
	C1228.646729,365.300323 1221.923340,365.606018 1215.220459,366.159698 
	C1209.629517,366.621521 1204.075684,367.558289 1198.482178,367.962585 
	C1183.126465,369.072479 1167.756348,369.984070 1152.395752,371.028809 
	C1138.362793,371.983215 1124.339478,373.083252 1110.303345,373.984497 
	C1093.444946,375.066986 1076.579346,376.038177 1059.713379,376.998596 
	C1047.140625,377.714508 1034.565552,378.398529 1021.986145,378.985046 
	C1006.246826,379.718903 990.498962,380.271637 974.760925,381.029572 
	C963.346252,381.579315 951.919922,382.082336 940.537720,383.060150 
	C924.172729,384.466003 908.566284,380.373596 892.964783,376.705536 
	C882.053223,374.140137 871.255249,370.805023 860.745239,366.901611 
	C850.708191,363.173889 843.013428,356.336945 837.740540,346.644958 
	C831.086365,334.414001 823.393005,322.742096 816.891663,310.436096 
	C810.865601,299.029816 807.643066,286.584717 808.086487,273.592468 
	C808.579041,259.158722 812.429321,245.232208 822.344055,234.703247 
	C829.952942,226.623093 839.885803,220.685730 848.973999,214.054245 
	C865.426270,202.049362 883.037170,191.521973 896.988770,176.368286 
	C898.509827,174.716141 899.802063,172.160873 899.877197,169.978958 
	C900.512878,151.513535 898.987610,133.247116 894.047058,115.350533 
	C888.116638,93.868439 875.826904,79.856445 851.838562,76.981575 
	C815.973206,72.683289 782.706421,79.724976 753.445801,101.446121 
	C733.784302,116.041473 719.890564,135.105545 715.381958,159.642151 
	C710.815186,184.495300 717.362183,206.911545 732.468140,226.968903 
	C742.522461,240.318817 753.258911,253.220367 762.435059,267.149384 
	C773.470032,283.899811 780.350769,302.473663 778.907593,323.000092 
	C777.431641,343.993683 768.244385,360.907501 750.745728,373.187317 
	C739.699768,380.938873 727.837402,386.515076 714.490051,388.609131 
	C711.257019,389.116364 707.876587,388.790009 704.569397,388.680817 
	C702.432739,388.610260 700.309509,388.070587 698.174316,388.026215 
	C679.887634,387.646027 661.595825,387.465271 643.312988,386.957916 
	C625.732361,386.470032 608.159546,385.689636 590.585205,384.990723 
	C574.674805,384.357971 558.765320,383.695587 542.858337,382.983185 
	C529.113708,382.367615 515.371521,381.694550 501.631104,380.990936 
	C482.599365,380.016388 463.566101,379.062561 444.542084,377.952576 
	C435.651581,377.433868 426.781219,376.569946 417.161133,375.803467 
	C417.472443,379.911194 417.632019,383.438202 418.023956,386.939148 
	C419.603668,401.049957 421.345062,415.143158 422.846375,429.262054 
	C423.738098,437.648621 424.239655,446.075897 425.012390,454.476074 
	C426.268585,468.132477 427.669373,481.775757 428.881714,495.435883 
	C429.700897,504.665833 430.350861,513.911804 430.989258,523.156677 
	C432.346069,542.805908 433.589630,562.463013 434.984772,582.109436 
	C436.446014,602.686707 436.451508,623.066467 430.940643,643.267578 
	C426.794434,658.466309 423.441895,673.900513 415.965363,687.905640 
	C409.340210,700.315918 400.311279,710.062073 386.830566,715.912231 
	C377.181549,720.099609 368.626312,726.754822 359.418152,732.020630 
	C333.037750,747.106323 303.657379,749.872437 278.009674,730.840027 
	C266.064728,721.976013 254.829575,712.090271 243.767853,702.118347 
	C230.563614,690.215088 217.937515,677.672607 204.960007,665.514709 
	C200.546371,661.379883 195.315720,659.724121 189.045517,659.892334 
	C162.336914,660.608826 135.680847,661.733887 110.231316,670.920959 
	C96.899536,675.733582 84.482552,682.324890 78.818687,696.580566 
	C74.110062,708.431885 74.972389,720.795654 77.554489,732.861877 
	C83.629379,761.249939 101.223221,781.284668 125.349052,796.078186 
	C142.580582,806.644165 161.456467,812.184143 181.615128,814.108521 
	C214.790558,817.275574 244.879028,809.398682 272.742615,791.245911 
	C291.933075,778.743591 311.682739,767.058899 334.392242,761.762817 
	C353.737244,757.251343 372.881195,757.119934 391.377502,765.304260 
	C401.106415,769.609131 408.981049,776.509094 415.042664,785.209595 
	C430.686584,807.664124 437.317871,832.743164 435.971161,859.968933 
	C435.095490,877.671997 434.115082,895.371826 432.960449,913.058655 
	C431.774841,931.219727 430.441376,949.373108 428.949493,967.511536 
	C427.431946,985.962280 425.747345,1004.400940 423.932617,1022.824829 
	C422.832397,1033.995117 421.338806,1045.126465 420.053741,1056.278931 
	C419.981018,1056.909790 420.197418,1057.573975 420.348511,1058.771484 
	C427.517883,1059.512939 434.693512,1060.364014 441.889404,1060.977173 
	C458.201447,1062.366943 474.521912,1063.658813 490.842316,1064.948242 
	C496.124329,1065.365601 501.413971,1065.701904 506.704742,1065.989868 
	C525.566956,1067.016235 544.431702,1067.994995 563.294434,1069.013062 
	C575.204529,1069.655884 587.109131,1070.408691 599.022461,1070.982910 
	C614.427856,1071.725464 629.838013,1072.374390 645.248779,1072.998413 
	C662.656067,1073.703369 680.063477,1074.428955 697.476501,1074.958618 
	C705.480164,1075.202026 705.488037,1075.000488 708.057434,1067.198853 
	C708.313293,1066.421875 708.531372,1065.632568 708.658508,1065.209961 
	C698.017700,1058.410522 687.266296,1052.146484 677.171570,1044.960083 
	C657.891052,1031.234497 646.144287,1012.228088 642.181274,989.066040 
	C637.506653,961.744324 639.400574,934.589783 647.895630,908.094727 
	C655.607422,884.042297 672.066101,868.249268 695.246704,859.066101 
	C710.297913,853.103394 725.970032,849.701233 742.105286,849.078003 
	C760.211731,848.378540 778.389954,847.362915 796.453247,848.228882 
	C823.005249,849.501831 849.182434,853.721252 873.239319,866.129211 
	C904.210938,882.103760 922.398682,907.496887 929.100525,941.632690 
	C933.140991,962.212524 931.203430,982.027405 922.396362,1000.835205 
	C914.807434,1017.041626 903.952576,1031.083130 890.030151,1042.550293 
	C886.768860,1045.236450 884.404968,1047.911865 888.294983,1051.942993 
	C889.183105,1052.863403 889.726013,1054.198120 890.193298,1055.430908 
	C894.353638,1066.407349 903.875854,1067.797485 913.755798,1069.061279 
	C926.357117,1070.673096 938.844421,1073.342407 951.477722,1074.485474 
	C961.195251,1075.364624 971.062439,1074.607178 980.862732,1074.526855 
	C982.005066,1074.517456 983.141174,1074.056030 984.286316,1074.023682 
	C997.239868,1073.657593 1010.202393,1073.516968 1023.147095,1072.957031 
	C1042.684204,1072.112305 1062.213989,1071.067627 1081.737549,1069.947144 
	C1096.609131,1069.093750 1111.476440,1068.118408 1126.327393,1066.962646 
	C1141.158203,1065.808472 1155.961060,1064.301514 1170.786011,1063.065796 
	C1180.351440,1062.268555 1189.945679,1061.810547 1199.506714,1060.969238 
	C1213.145020,1059.769287 1226.764771,1058.357666 1240.906006,1056.986694 
	C1240.906006,1032.902832 1240.906006,1009.322815 1240.906006,985.193054 
	C1266.148438,988.324707 1290.762573,991.378479 1316.000000,994.509521 
	C1316.000000,996.361206 1316.000000,998.141052 1316.000000,999.920959 
	C1316.000000,1021.420593 1315.914551,1042.920654 1316.045898,1064.419556 
	C1316.092407,1072.042358 1316.916626,1079.661377 1316.937866,1087.283325 
	C1316.965820,1097.259644 1314.894287,1106.663696 1308.218018,1114.612183 
	C1301.859863,1122.182373 1293.930420,1126.829468 1284.104248,1127.972656 
	C1269.177124,1129.709595 1254.247192,1131.449585 1239.290527,1132.899292 
	C1226.450073,1134.143555 1213.563843,1134.906982 1200.709839,1136.021240 
	C1186.550781,1137.248535 1172.415649,1138.757812 1158.250854,1139.909424 
	C1147.358887,1140.794800 1136.433716,1141.264282 1125.529785,1142.013428 
	C1112.161255,1142.931641 1098.801270,1143.975342 1085.433960,1144.910645 
	C1079.318848,1145.338501 1073.198242,1145.728760 1067.073608,1145.973267 
	C1056.788940,1146.384033 1046.495728,1146.588623 1036.211914,1147.016846 
	C1018.660095,1147.747925 1001.112732,1148.585205 983.281738,1149.688965 
	C969.979126,1150.000000 956.958191,1150.000000 943.219238,1149.701660 
	C935.833862,1148.273071 929.170227,1147.121338 922.498596,1146.017334 
	C906.219055,1143.322754 889.823975,1141.185913 873.686890,1137.812866 
	C858.712097,1134.682739 845.460754,1128.128418 837.475830,1113.909302 
	C834.149597,1107.986084 830.429321,1102.285645 826.962891,1096.439575 
	C815.248962,1076.684082 804.968079,1056.503784 809.013489,1032.346191 
	C810.933472,1020.881348 814.684021,1010.069580 822.999207,1001.656372 
	C830.102966,994.468933 838.221436,988.278503 845.257263,981.031799 
	C850.880493,975.240051 856.666748,968.839966 855.898621,959.898376 
	C854.727844,946.269531 848.143677,936.340698 834.982727,931.039124 
	C822.038269,925.824829 808.401611,923.698792 794.767700,923.249207 
	C775.516479,922.614258 756.199524,923.399536 736.929688,924.100281 
	C724.315491,924.558899 716.885620,931.458496 716.053955,942.575256 
	C715.485352,950.176819 715.483887,957.819885 714.965210,965.426331 
	C714.192810,976.754639 719.501343,984.191589 729.065063,989.619751 
	C744.457458,998.356262 760.803589,1005.434326 774.318970,1017.426514 
	C783.453064,1025.531372 789.379517,1034.985962 788.760925,1047.062744 
	C788.275452,1056.540771 786.127563,1066.026611 783.858765,1075.298706 
	C780.274597,1089.947144 776.615051,1104.924927 767.995972,1117.419312 
	C754.611633,1136.821411 735.542969,1147.069946 711.650269,1146.968018 
	C687.199707,1146.863770 662.750122,1146.393555 638.302002,1145.971436 
	C629.679321,1145.822632 621.062317,1145.345581 612.442871,1145.013916 
	C595.037231,1144.344238 577.630188,1143.708740 560.226624,1142.988647 
	C545.318237,1142.371704 530.412659,1141.684448 515.508667,1140.968628 
	C510.217957,1140.714355 504.928436,1140.369263 499.650940,1139.918823 
	C484.831329,1138.653931 470.022034,1137.267944 455.201508,1136.014526 
	C442.347473,1134.927124 429.465363,1134.142334 416.628967,1132.884155 
	C402.006836,1131.451050 387.435516,1129.503296 372.816864,1128.029663 
	C353.938721,1126.126587 339.762787,1109.459229 341.023682,1093.365479 
	C341.940369,1081.665283 342.921631,1069.965820 344.154083,1058.295776 
	C345.610168,1044.508301 347.554047,1030.771362 348.939728,1016.977722 
	C350.212280,1004.310120 350.969086,991.591614 352.052094,978.903931 
	C353.654510,960.130920 355.550964,941.380432 356.928650,922.591553 
	C357.946442,908.710754 358.321442,894.783142 359.012878,880.877869 
	C359.358551,873.925720 359.070343,866.846375 360.333679,860.059998 
	C361.867126,851.822754 360.571777,844.214355 357.635010,836.734192 
	C357.174835,835.562134 354.378296,834.190674 353.243744,834.584961 
	C346.861267,836.803223 340.342102,838.960571 334.450806,842.196899 
	C317.033508,851.765076 300.325531,862.716064 282.530243,871.482300 
	C258.190002,883.472839 231.783157,888.710022 204.785324,889.799072 
	C192.093597,890.311035 179.269333,889.149109 166.586578,887.911255 
	C144.979889,885.802429 124.368401,879.596680 104.803932,870.305054 
	C81.684448,859.324951 61.180538,844.748291 43.916656,825.566162 
	C24.993586,804.540344 11.686444,780.678406 4.933381,753.217529 
	C3.373139,746.872986 2.298240,740.408997 0.999999,734.000000 
	C1.000000,722.312439 1.000000,710.624878 1.302629,698.207031 
	C2.146851,693.554565 2.438092,689.578552 3.269149,685.718750 
	C10.744637,650.998596 31.067757,626.191833 62.240437,609.920837 
	C88.658119,596.131775 117.334572,590.239258 146.580795,587.197266 
	C162.879517,585.501953 179.368271,585.542358 195.778748,585.042603 
	C207.960281,584.671570 219.383133,588.085144 230.304474,593.160767 
	C246.155792,600.527527 259.361694,611.652710 271.902344,623.533264 
	C279.253571,630.497437 285.647583,638.477783 293.053467,645.377136 
	C301.621307,653.359009 310.827698,660.655457 319.703796,668.204407 
	C328.417358,662.764893 336.096985,657.529419 344.204498,653.072327 
	C349.207581,650.321899 352.563934,646.962891 353.809143,641.325134 
	C357.214874,625.905457 362.601776,610.874512 360.160858,594.529480 
	C358.894135,586.047241 359.476837,577.303894 358.903473,568.699890 
	C357.715759,550.876648 356.321594,533.067078 354.996826,515.253052 
	C354.297363,505.847809 353.673462,496.435181 352.821777,487.043457 
	C351.643463,474.050079 350.257355,461.075684 349.009338,448.088440 
	C348.234314,440.023438 347.688507,431.934357 346.794312,423.883362 
	C345.300446,410.433655 343.635742,397.002594 341.994843,383.569580 
	C340.434143,370.793671 338.537720,358.051117 337.333344,345.242676 
	C336.739563,338.928223 336.214111,332.218903 337.669678,326.172577 
	C342.153809,307.545685 360.175232,296.043579 379.111267,297.943787 
	C396.714355,299.710205 414.393219,300.739227 432.046814,301.977448 
	C443.112061,302.753540 454.188660,303.386627 465.266571,303.959656 
	C485.789581,305.021179 506.316956,305.999390 526.843201,306.997284 
	C540.748718,307.673309 554.652771,308.386322 568.562256,308.969727 
	C586.131409,309.706696 603.702087,310.437836 621.278259,310.967773 
	C637.391357,311.453613 653.512695,311.663818 669.630005,312.015350 
	C670.618103,312.036926 671.602173,312.330902 672.588562,312.333527 
	C682.119385,312.358734 691.650269,312.348633 701.651306,312.348633 
	C700.593201,310.485260 699.813110,308.655334 698.643005,307.123352 
	C689.604919,295.290955 680.241882,283.698700 671.452576,271.685944 
	C652.411926,245.662170 641.241699,216.534088 639.114685,184.301056 
	C637.817383,164.640640 640.222961,145.213196 646.360840,126.426338 
	C656.951355,94.011093 676.088318,67.495491 702.440613,45.999691 
	C729.509338,23.919449 760.435974,10.389330 794.627319,4.012586 
	C800.726685,2.875044 806.874512,1.997560 813.000000,0.999998 
	C826.687561,1.000000 840.375122,1.000000 854.531372,1.000000 
z"/>
<path fill="#FFFFFF" opacity="1.000000" stroke="none" 
	d="
M812.531372,0.999998 
	C806.874512,1.997560 800.726685,2.875044 794.627319,4.012586 
	C760.435974,10.389330 729.509338,23.919449 702.440613,45.999691 
	C676.088318,67.495491 656.951355,94.011093 646.360840,126.426338 
	C640.222961,145.213196 637.817383,164.640640 639.114685,184.301056 
	C641.241699,216.534088 652.411926,245.662170 671.452576,271.685944 
	C680.241882,283.698700 689.604919,295.290955 698.643005,307.123352 
	C699.813110,308.655334 700.593201,310.485260 701.651306,312.348633 
	C691.650269,312.348633 682.119385,312.358734 672.588562,312.333527 
	C671.602173,312.330902 670.618103,312.036926 669.630005,312.015350 
	C653.512695,311.663818 637.391357,311.453613 621.278259,310.967773 
	C603.702087,310.437836 586.131409,309.706696 568.562256,308.969727 
	C554.652771,308.386322 540.748718,307.673309 526.843201,306.997284 
	C506.316956,305.999390 485.789581,305.021179 465.266571,303.959656 
	C454.188660,303.386627 443.112061,302.753540 432.046814,301.977448 
	C414.393219,300.739227 396.714355,299.710205 379.111267,297.943787 
	C360.175232,296.043579 342.153809,307.545685 337.669678,326.172577 
	C336.214111,332.218903 336.739563,338.928223 337.333344,345.242676 
	C338.537720,358.051117 340.434143,370.793671 341.994843,383.569580 
	C343.635742,397.002594 345.300446,410.433655 346.794312,423.883362 
	C347.688507,431.934357 348.234314,440.023438 349.009338,448.088440 
	C350.257355,461.075684 351.643463,474.050079 352.821777,487.043457 
	C353.673462,496.435181 354.297363,505.847809 354.996826,515.253052 
	C356.321594,533.067078 357.715759,550.876648 358.903473,568.699890 
	C359.476837,577.303894 358.894135,586.047241 360.160858,594.529480 
	C362.601776,610.874512 357.214874,625.905457 353.809143,641.325134 
	C352.563934,646.962891 349.207581,650.321899 344.204498,653.072327 
	C336.096985,657.529419 328.417358,662.764893 319.703796,668.204407 
	C310.827698,660.655457 301.621307,653.359009 293.053467,645.377136 
	C285.647583,638.477783 279.253571,630.497437 271.902344,623.533264 
	C259.361694,611.652710 246.155792,600.527527 230.304474,593.160767 
	C219.383133,588.085144 207.960281,584.671570 195.778748,585.042603 
	C179.368271,585.542358 162.879517,585.501953 146.580795,587.197266 
	C117.334572,590.239258 88.658119,596.131775 62.240437,609.920837 
	C31.067757,626.191833 10.744637,650.998596 3.269149,685.718750 
	C2.438092,689.578552 2.146851,693.554565 1.302629,697.738342 
	C1.000000,465.734009 1.000000,233.468018 1.000000,1.000000 
	C271.354187,1.000000 541.708435,1.000000 812.531372,0.999998 
z"/>
<path fill="#FFFFFF" opacity="1.000000" stroke="none" 
	d="
M0.999999,734.468628 
	C2.298240,740.408997 3.373139,746.872986 4.933381,753.217529 
	C11.686444,780.678406 24.993586,804.540344 43.916656,825.566162 
	C61.180538,844.748291 81.684448,859.324951 104.803932,870.305054 
	C124.368401,879.596680 144.979889,885.802429 166.586578,887.911255 
	C179.269333,889.149109 192.093597,890.311035 204.785324,889.799072 
	C231.783157,888.710022 258.190002,883.472839 282.530243,871.482300 
	C300.325531,862.716064 317.033508,851.765076 334.450806,842.196899 
	C340.342102,838.960571 346.861267,836.803223 353.243744,834.584961 
	C354.378296,834.190674 357.174835,835.562134 357.635010,836.734192 
	C360.571777,844.214355 361.867126,851.822754 360.333679,860.059998 
	C359.070343,866.846375 359.358551,873.925720 359.012878,880.877869 
	C358.321442,894.783142 357.946442,908.710754 356.928650,922.591553 
	C355.550964,941.380432 353.654510,960.130920 352.052094,978.903931 
	C350.969086,991.591614 350.212280,1004.310120 348.939728,1016.977722 
	C347.554047,1030.771362 345.610168,1044.508301 344.154083,1058.295776 
	C342.921631,1069.965820 341.940369,1081.665283 341.023682,1093.365479 
	C339.762787,1109.459229 353.938721,1126.126587 372.816864,1128.029663 
	C387.435516,1129.503296 402.006836,1131.451050 416.628967,1132.884155 
	C429.465363,1134.142334 442.347473,1134.927124 455.201508,1136.014526 
	C470.022034,1137.267944 484.831329,1138.653931 499.650940,1139.918823 
	C504.928436,1140.369263 510.217957,1140.714355 515.508667,1140.968628 
	C530.412659,1141.684448 545.318237,1142.371704 560.226624,1142.988647 
	C577.630188,1143.708740 595.037231,1144.344238 612.442871,1145.013916 
	C621.062317,1145.345581 629.679321,1145.822632 638.302002,1145.971436 
	C662.750122,1146.393555 687.199707,1146.863770 711.650269,1146.968018 
	C735.542969,1147.069946 754.611633,1136.821411 767.995972,1117.419312 
	C776.615051,1104.924927 780.274597,1089.947144 783.858765,1075.298706 
	C786.127563,1066.026611 788.275452,1056.540771 788.760925,1047.062744 
	C789.379517,1034.985962 783.453064,1025.531372 774.318970,1017.426514 
	C760.803589,1005.434326 744.457458,998.356262 729.065063,989.619751 
	C719.501343,984.191589 714.192810,976.754639 714.965210,965.426331 
	C715.483887,957.819885 715.485352,950.176819 716.053955,942.575256 
	C716.885620,931.458496 724.315491,924.558899 736.929688,924.100281 
	C756.199524,923.399536 775.516479,922.614258 794.767700,923.249207 
	C808.401611,923.698792 822.038269,925.824829 834.982727,931.039124 
	C848.143677,936.340698 854.727844,946.269531 855.898621,959.898376 
	C856.666748,968.839966 850.880493,975.240051 845.257263,981.031799 
	C838.221436,988.278503 830.102966,994.468933 822.999207,1001.656372 
	C814.684021,1010.069580 810.933472,1020.881348 809.013489,1032.346191 
	C804.968079,1056.503784 815.248962,1076.684082 826.962891,1096.439575 
	C830.429321,1102.285645 834.149597,1107.986084 837.475830,1113.909302 
	C845.460754,1128.128418 858.712097,1134.682739 873.686890,1137.812866 
	C889.823975,1141.185913 906.219055,1143.322754 922.498596,1146.017334 
	C929.170227,1147.121338 935.833862,1148.273071 942.750610,1149.701660 
	C629.101135,1150.000000 315.202271,1150.000000 1.000000,1150.000000 
	C1.000000,1011.645935 1.000000,873.291626 0.999999,734.468628 
z"/>
<path fill="#1D1D1B" opacity="1.000000" stroke="none" 
	d="
M2672.000000,759.531372 
	C2656.525635,760.000000 2641.051514,760.000000 2625.000000,760.000000 
	C2625.000000,758.002930 2625.000000,756.237000 2625.000000,754.471130 
	C2625.000000,712.477722 2625.028076,670.484253 2624.985596,628.490845 
	C2624.969482,612.573059 2617.605713,599.879700 2606.082031,589.832214 
	C2595.118652,580.273010 2581.728760,575.493958 2567.117432,576.106140 
	C2540.793213,577.209167 2519.085938,593.707092 2513.108398,620.106812 
	C2512.176270,624.223511 2512.052734,628.588318 2512.045166,632.839172 
	C2511.970947,674.992371 2512.000000,717.145813 2512.000000,759.649536 
	C2496.487305,759.649536 2481.084473,759.649536 2465.339844,759.649536 
	C2465.339844,687.134460 2465.339844,614.406372 2465.339844,541.000000 
	C2472.376709,541.000000 2479.631104,541.000000 2486.885498,541.000000 
	C2490.884766,541.000000 2494.925293,541.360474 2498.873535,540.911743 
	C2504.203857,540.306030 2506.905273,542.151123 2507.074707,547.619019 
	C2507.100342,548.446045 2507.939697,549.247986 2508.598633,550.406067 
	C2513.017578,547.577576 2517.035889,544.553162 2521.439941,542.273560 
	C2533.276855,536.146545 2545.612549,532.006836 2559.158203,530.838928 
	C2588.611816,528.299316 2614.493896,536.178528 2637.371094,554.799133 
	C2655.075684,569.209473 2665.261719,588.066101 2670.912842,609.743835 
	C2671.322998,611.317749 2671.137207,613.047119 2671.614258,614.852112 
	C2672.000000,663.020874 2672.000000,711.041809 2672.000000,759.531372 
z"/>
<path fill="#676568" opacity="1.000000" stroke="none" 
	d="
M2672.000000,903.531372 
	C2671.347168,907.096741 2670.474854,910.165588 2670.077393,913.294800 
	C2667.771729,931.438721 2657.374023,944.260559 2641.884277,952.249939 
	C2624.478760,961.227356 2606.544434,960.240906 2589.522461,949.992188 
	C2575.949707,941.820312 2567.655762,929.521423 2565.384521,914.202026 
	C2563.062500,898.540283 2565.703125,883.525940 2576.614014,870.759460 
	C2586.251221,859.483582 2598.112061,853.307007 2612.859131,851.910645 
	C2624.984131,850.762573 2636.104980,852.923096 2646.291992,859.673828 
	C2646.780518,859.997437 2647.550537,859.895996 2648.701416,860.069885 
	C2648.701416,846.811646 2648.701416,833.779419 2648.701416,820.702881 
	C2656.526123,820.702881 2663.865723,820.702881 2671.602539,820.851440 
	C2672.000000,827.021179 2672.000000,833.042297 2671.615479,839.735352 
	C2671.156738,852.941711 2671.067871,865.476196 2671.051758,878.010742 
	C2671.051025,878.673401 2671.669678,879.336853 2672.000000,880.000000 
	C2672.000000,887.687561 2672.000000,895.375183 2672.000000,903.531372 
M2633.261475,931.949219 
	C2641.873779,926.708801 2647.378418,918.981018 2648.858398,909.209778 
	C2652.074219,887.975647 2632.337402,870.169312 2612.321289,873.756470 
	C2599.238525,876.101013 2584.606689,890.653870 2586.778564,908.775024 
	C2589.328125,930.048157 2615.008057,943.245300 2633.261475,931.949219 
z"/>
<path fill="#FFFFFF" opacity="1.000000" stroke="none" 
	d="
M2672.000000,879.531372 
	C2671.669678,879.336853 2671.051025,878.673401 2671.051758,878.010742 
	C2671.067871,865.476196 2671.156738,852.941711 2671.615479,840.203613 
	C2672.000000,853.020874 2672.000000,866.041809 2672.000000,879.531372 
z"/>
<path fill="#1D1D1B" opacity="1.000000" stroke="none" 
	d="
M1333.353760,759.175720 
	C1334.812622,754.073730 1335.988892,749.263916 1337.374390,743.598816 
	C1324.329102,753.149841 1311.002075,760.035889 1296.302124,764.375793 
	C1278.674072,769.580322 1260.854126,769.984070 1242.764282,768.063477 
	C1220.093628,765.656616 1200.150635,756.724304 1182.269287,742.990601 
	C1159.541382,725.534485 1144.723755,702.851013 1139.117188,674.631348 
	C1137.343750,665.705261 1135.896240,656.457092 1136.209229,647.422546 
	C1137.106445,621.530640 1145.268677,598.073425 1161.755005,577.656494 
	C1179.682861,555.454346 1202.655273,541.266235 1230.113892,534.574463 
	C1243.940308,531.204956 1258.045166,530.138184 1272.508545,531.751404 
	C1288.938354,533.583923 1304.576294,537.636719 1319.514160,544.348328 
	C1325.342041,546.966858 1330.510010,551.056702 1335.969360,554.490967 
	C1337.321045,555.341187 1338.636963,556.248108 1340.682861,557.600647 
	C1341.523560,553.212097 1342.042969,549.295227 1343.101074,545.529663 
	C1343.569458,543.862427 1345.097900,541.223206 1346.197021,541.196960 
	C1358.978394,540.891907 1371.769653,541.001831 1385.000000,541.001831 
	C1385.000000,542.816406 1385.000000,544.266479 1385.000000,545.716553 
	C1385.000000,610.196838 1385.486938,674.682617 1384.761841,739.154724 
	C1384.469116,765.175781 1375.517212,788.775452 1358.515015,809.123840 
	C1346.146729,823.926636 1331.470093,835.473633 1314.004517,843.443970 
	C1303.260620,848.346985 1292.053711,851.899780 1280.195557,853.002014 
	C1273.025269,853.668518 1265.834961,855.066956 1258.688354,854.871094 
	C1230.262207,854.091980 1204.334351,845.585815 1181.682861,828.104492 
	C1169.775635,818.915039 1160.391357,807.363525 1151.650269,794.494202 
	C1161.660522,787.911377 1171.585327,781.356812 1181.543335,774.852905 
	C1184.624268,772.840576 1188.125488,769.090881 1190.830200,769.567078 
	C1193.424805,770.023926 1195.174805,774.976257 1197.401855,777.871582 
	C1210.158203,794.455322 1227.068359,804.756104 1247.526123,807.796997 
	C1277.405762,812.238403 1302.546143,802.138306 1322.009033,779.157471 
	C1326.786011,773.517029 1329.440796,766.079346 1333.353760,759.175720 
M1286.484253,719.063293 
	C1307.478149,711.605042 1322.843384,697.874512 1331.789062,677.446716 
	C1339.242676,660.426208 1339.213135,642.912903 1332.806030,625.633484 
	C1328.224243,613.277283 1320.629395,602.875610 1310.154053,594.592163 
	C1291.039062,579.476868 1269.330444,573.873169 1245.644043,578.365356 
	C1227.611084,581.785278 1212.183472,590.557068 1200.206299,605.152832 
	C1185.285034,623.336487 1180.034546,644.224976 1185.541504,666.420044 
	C1192.515015,694.525757 1211.691284,712.430176 1239.421631,720.586121 
	C1246.510376,722.671021 1254.174805,723.936646 1261.518066,723.713135 
	C1269.675537,723.464783 1277.767944,721.082703 1286.484253,719.063293 
z"/>
<path fill="#1D1D1B" opacity="1.000000" stroke="none" 
	d="
M1653.929199,541.000000 
	C1656.403809,541.000000 1658.386841,541.000000 1660.746216,541.000000 
	C1660.837036,542.593628 1660.989746,544.024048 1660.989990,545.454529 
	C1661.001587,611.434814 1661.182739,677.415955 1660.841797,743.394531 
	C1660.775635,756.179688 1657.019531,768.466492 1652.311523,780.519714 
	C1645.245239,798.610046 1633.130615,812.780090 1619.000244,825.309265 
	C1604.411255,838.244995 1587.194336,846.801392 1568.108521,850.853333 
	C1557.955078,853.008911 1547.470337,854.882629 1537.158447,854.768311 
	C1508.062866,854.446045 1481.500732,846.062744 1458.178467,827.888062 
	C1446.918823,819.113708 1438.116211,808.365906 1429.796997,797.064636 
	C1429.216309,796.275879 1429.992554,793.392944 1430.983032,792.710205 
	C1442.156250,785.009094 1453.447876,777.474243 1464.874634,770.155640 
	C1465.845215,769.534058 1468.859985,770.248779 1469.501099,771.252380 
	C1476.857544,782.767822 1486.299683,791.930054 1498.176392,798.778809 
	C1506.709229,803.699280 1515.890259,806.373901 1525.446533,807.963074 
	C1539.268433,810.261597 1552.556763,808.064331 1565.597412,803.125366 
	C1582.706543,796.645630 1596.014526,785.724243 1604.583008,769.621765 
	C1608.168213,762.884094 1610.245728,755.338867 1612.914307,748.125854 
	C1613.233032,747.264404 1612.957642,746.183044 1612.957642,744.754333 
	C1606.655396,748.533447 1600.937988,752.421631 1594.827393,755.538879 
	C1577.226196,764.517761 1558.634888,768.967590 1538.677856,769.207031 
	C1516.836060,769.469116 1496.392822,765.003113 1477.189331,754.961670 
	C1455.870117,743.813965 1439.194458,727.719788 1427.248779,706.720520 
	C1415.144287,685.442078 1410.970459,662.390198 1413.197510,638.421204 
	C1415.185425,617.026733 1423.091309,597.601501 1436.137207,580.187622 
	C1448.160767,564.138489 1463.361572,552.190125 1481.130249,543.556763 
	C1494.534546,537.043884 1508.793579,533.311035 1523.841309,531.821289 
	C1550.395142,529.192322 1575.231567,534.325562 1598.858276,546.076111 
	C1604.890015,549.075928 1610.387695,553.149597 1617.024902,557.287354 
	C1618.153564,551.878418 1619.263672,546.557983 1620.423340,541.000000 
	C1631.480835,541.000000 1642.459229,541.000000 1653.929199,541.000000 
M1478.473877,603.017761 
	C1476.920044,604.909180 1475.254639,606.720520 1473.829834,608.704651 
	C1461.966431,625.226562 1457.160645,643.669495 1461.191895,663.577881 
	C1464.732666,681.064270 1473.716797,695.764221 1488.205566,706.702454 
	C1508.384888,721.936584 1530.759521,727.066589 1555.462769,721.161743 
	C1572.535034,717.080933 1586.885864,708.512634 1597.819946,694.645264 
	C1611.064697,677.847656 1616.875732,658.817993 1612.722656,637.667725 
	C1609.130615,619.373779 1599.744629,604.220032 1584.530273,593.047363 
	C1566.060181,579.483948 1545.382690,574.066467 1522.843140,578.189514 
	C1505.701294,581.325134 1490.748047,589.257690 1478.473877,603.017761 
z"/>
<path fill="#1D1D1B" opacity="1.000000" stroke="none" 
	d="
M653.715454,724.218018 
	C641.482178,708.781616 633.126892,691.837585 629.462341,672.816589 
	C628.075684,665.619019 627.125488,658.211548 627.104187,650.896484 
	C626.922424,588.413086 627.000061,525.928955 627.000122,463.445007 
	C627.000122,462.474426 627.000122,461.503845 627.000122,460.267456 
	C643.014893,460.267456 658.748047,460.267456 674.874512,460.267456 
	C674.874512,492.010925 674.874512,523.724182 674.874512,556.068726 
	C687.239197,547.539673 699.763733,540.900024 713.598511,536.673523 
	C728.989319,531.971619 744.719238,529.941711 760.598389,531.153870 
	C787.685791,533.221619 812.365784,542.529358 833.300476,560.012024 
	C854.279785,577.532104 868.237061,599.908386 873.776794,626.784302 
	C878.521057,649.800659 876.110657,672.438965 867.276794,694.370178 
	C860.574097,711.010742 850.483826,725.332886 837.192566,737.105835 
	C819.850525,752.466980 799.851929,763.427002 776.705261,766.784485 
	C763.719543,768.668152 750.296875,769.748230 737.275024,768.687256 
	C714.180115,766.805420 693.006409,758.344421 674.673706,743.955078 
	C667.249817,738.128052 660.845947,731.001526 653.715454,724.218018 
M676.002441,635.801575 
	C675.992798,636.800720 675.956543,637.800354 675.977600,638.798889 
	C676.170044,647.909546 675.108521,657.268372 676.839722,666.077942 
	C680.252380,683.444458 690.254517,697.189758 704.357605,707.815552 
	C722.099976,721.183289 742.442444,725.937744 763.984436,722.703918 
	C781.812744,720.027588 797.372314,711.669495 809.689941,697.879333 
	C824.760803,681.006836 831.297607,661.306946 827.766724,639.138489 
	C824.691406,619.831177 814.673889,603.817993 798.668030,592.402954 
	C779.083313,578.435425 757.168396,573.533997 733.524597,579.081848 
	C714.376953,583.574707 698.533020,593.755859 687.637939,610.196289 
	C682.660461,617.707214 679.832336,626.642639 676.002441,635.801575 
z"/>
<path fill="#1D1D1B" opacity="1.000000" stroke="none" 
	d="
M1811.054688,769.000000 
	C1785.295410,768.324707 1762.915039,759.350281 1742.537231,744.960144 
	C1727.473511,734.322571 1715.320923,720.710266 1707.355591,704.224426 
	C1702.175781,693.503967 1698.614380,681.693237 1696.311768,669.980957 
	C1694.173340,659.103638 1694.128906,647.710999 1694.090332,636.542053 
	C1693.894409,579.724976 1694.000000,522.906860 1694.000000,466.089142 
	C1694.000000,464.270660 1694.000000,462.452179 1694.000000,460.318665 
	C1709.576538,460.318665 1724.977295,460.318665 1740.916260,460.318665 
	C1740.916260,492.042328 1740.916260,523.892578 1740.916260,555.685730 
	C1749.037842,551.281128 1756.640625,546.845703 1764.514404,542.959106 
	C1777.076782,536.758057 1790.447510,533.536865 1804.400513,531.872192 
	C1826.827759,529.196472 1848.392090,532.418274 1868.836182,541.271423 
	C1879.238770,545.776245 1888.938965,552.289490 1898.204712,558.942139 
	C1911.671387,568.611084 1922.225342,581.399780 1929.314331,596.234253 
	C1934.525024,607.137817 1937.618408,619.139526 1940.825806,630.878540 
	C1942.482788,636.943359 1943.052490,643.521667 1942.876953,649.833618 
	C1942.067505,678.955994 1933.202148,705.008972 1913.487915,727.168823 
	C1898.308716,744.231140 1879.943115,755.829529 1858.507080,763.231628 
	C1843.189697,768.520874 1827.499146,769.526367 1811.054688,769.000000 
M1836.623779,721.056702 
	C1837.289307,721.033142 1837.992188,721.142212 1838.614990,720.966675 
	C1856.240723,715.997681 1870.821899,706.442627 1881.703491,691.652954 
	C1892.939575,676.381470 1897.379639,658.868713 1894.723267,640.399963 
	C1892.230591,623.069519 1883.839722,608.335388 1870.239868,596.601807 
	C1850.944702,579.954834 1828.659668,573.791443 1804.031006,578.253540 
	C1783.052734,582.054382 1765.649414,592.875610 1753.607178,610.968201 
	C1741.787476,628.726624 1738.249634,648.127869 1744.082764,668.789246 
	C1748.214233,683.423279 1756.367554,695.706665 1768.031372,705.476013 
	C1776.147705,712.274292 1785.462158,716.917175 1795.614258,720.065491 
	C1808.967529,724.206543 1822.373535,724.317871 1836.623779,721.056702 
z"/>
<path fill="#1D1D1B" opacity="1.000000" stroke="none" 
	d="
M2184.218506,665.492065 
	C2184.022705,656.400635 2183.522217,647.700928 2184.116699,639.076599 
	C2184.976074,626.603394 2188.457031,614.647217 2193.398193,603.171082 
	C2198.849854,590.510254 2206.528076,579.137146 2216.236816,569.528564 
	C2227.905518,557.980286 2240.999512,548.347778 2256.384521,541.669800 
	C2275.227783,533.490906 2294.752930,530.079041 2314.950684,531.143860 
	C2340.044434,532.466675 2362.944336,540.676208 2383.277100,555.736206 
	C2399.865234,568.022339 2412.975830,583.139954 2421.498291,602.023682 
	C2426.504395,613.116028 2430.157227,624.625977 2430.995117,636.871521 
	C2431.510254,644.404724 2431.956543,651.942688 2432.462158,659.925293 
	C2365.256836,659.925293 2298.845947,659.925293 2232.006592,659.925293 
	C2231.896973,669.062988 2235.574219,676.632263 2239.531250,683.910767 
	C2246.967041,697.587402 2258.170654,707.736084 2271.832764,714.856018 
	C2281.315430,719.797974 2291.549072,722.379089 2302.457275,723.200439 
	C2317.304932,724.318359 2331.153076,721.478821 2344.124023,714.860901 
	C2357.538574,708.016602 2368.158203,697.845764 2375.845703,684.714783 
	C2376.616943,683.397766 2378.753906,682.133484 2380.271973,682.115723 
	C2396.267822,681.928711 2412.266602,682.000061 2428.708740,682.000061 
	C2422.907227,696.918213 2416.369385,711.060791 2406.195312,723.416748 
	C2389.877197,743.234253 2369.358154,756.549011 2344.969238,763.992126 
	C2323.389648,770.578003 2301.579346,770.648743 2279.493408,766.288635 
	C2259.842285,762.409241 2242.296875,753.876587 2227.205078,741.347290 
	C2205.894287,723.655090 2190.915771,701.456787 2185.980469,673.486572 
	C2185.532715,670.949768 2184.932617,668.439880 2184.218506,665.492065 
M2314.205078,577.000122 
	C2283.207031,575.924011 2258.852783,587.911438 2240.956543,613.944153 
	C2285.554199,613.944153 2329.482666,613.944153 2373.532227,613.944153 
	C2373.305664,613.118225 2373.288574,612.242859 2372.870117,611.651245 
	C2365.731201,601.558960 2357.087158,593.095093 2346.219727,587.011658 
	C2336.522705,581.583313 2326.041748,578.656921 2314.205078,577.000122 
z"/>
<path fill="#1D1D1B" opacity="1.000000" stroke="none" 
	d="
M1103.000000,737.000000 
	C1103.000000,746.497681 1103.350464,755.511780 1102.929688,764.489746 
	C1101.944702,785.506958 1095.831299,804.859863 1082.803345,821.653748 
	C1068.773193,839.739624 1050.114990,849.909973 1027.570923,852.951111 
	C1018.655945,854.153687 1009.658997,854.748596 1000.312256,855.657898 
	C1000.312256,839.746643 1000.312256,824.678467 1000.312256,809.035583 
	C1016.691406,809.514954 1032.872681,807.662292 1044.197998,794.041565 
	C1053.551514,782.792236 1056.227905,768.957458 1056.026367,755.394775 
	C1044.824219,759.266541 1033.791260,763.756836 1022.378845,766.845276 
	C1009.391602,770.359802 996.012024,769.561707 982.692993,768.066833 
	C966.264282,766.223022 951.377808,760.231140 938.000427,750.903503 
	C916.524109,735.928650 902.702942,715.407654 897.179077,689.773499 
	C895.501465,681.988708 895.132324,673.807800 895.091736,665.803589 
	C894.890564,626.148132 895.000000,586.491089 895.000000,546.834595 
	C895.000000,545.040344 895.000000,543.246155 895.000000,541.228638 
	C911.093994,541.228638 926.826843,541.228638 943.000000,541.228638 
	C943.000000,543.155762 943.000000,544.940186 943.000000,546.724609 
	C943.000000,588.047363 943.124146,629.370667 942.916260,670.692383 
	C942.861450,681.588318 946.494690,691.121033 952.434814,699.722046 
	C960.601257,711.546570 972.305237,718.828369 986.217712,721.900574 
	C1002.851440,725.573853 1018.609924,723.097473 1032.649780,712.829651 
	C1047.642456,701.865112 1056.025879,687.400879 1056.010254,668.479919 
	C1055.976685,627.990295 1056.000000,587.500732 1056.000000,547.011108 
	C1056.000000,545.200806 1056.000000,543.390503 1056.000000,541.291016 
	C1071.633423,541.291016 1087.033813,541.291016 1103.000000,541.291016 
	C1103.000000,606.335571 1103.000000,671.417786 1103.000000,737.000000 
z"/>
<path fill="#1D1D1B" opacity="1.000000" stroke="none" 
	d="
M2078.000000,747.985657 
	C2078.000000,694.200500 2078.000000,640.912292 2078.000000,587.205566 
	C2070.750977,587.205566 2063.675049,587.205566 2056.302979,587.205566 
	C2056.302979,571.727539 2056.302979,556.662964 2056.302979,541.177917 
	C2063.279053,541.177917 2070.353760,541.177917 2077.829590,541.177917 
	C2077.829590,514.036560 2077.829590,487.308014 2077.829590,460.290924 
	C2093.630615,460.290924 2109.028076,460.290924 2124.834961,460.290924 
	C2124.834961,486.969147 2124.834961,513.697693 2124.834961,540.836426 
	C2143.300781,540.836426 2161.367188,540.836426 2179.714844,540.836426 
	C2179.714844,556.309265 2179.714844,571.373413 2179.714844,586.851929 
	C2161.683594,586.851929 2143.617188,586.851929 2125.163818,586.851929 
	C2125.163818,644.644348 2125.163818,702.026672 2125.163818,759.703979 
	C2109.379883,759.703979 2093.982178,759.703979 2078.000000,759.703979 
	C2078.000000,756.020325 2078.000000,752.251465 2078.000000,747.985657 
z"/>
<path fill="#1D1D1B" opacity="1.000000" stroke="none" 
	d="
M2023.000000,577.000000 
	C2023.000000,638.130249 2023.000000,698.760498 2023.000000,759.695251 
	C2007.394897,759.695251 1991.994507,759.695251 1976.296143,759.695251 
	C1976.296143,687.052795 1976.296143,614.331421 1976.296143,541.304810 
	C1991.604980,541.304810 2007.005371,541.304810 2023.000000,541.304810 
	C2023.000000,552.977844 2023.000000,564.738953 2023.000000,577.000000 
z"/>
<path fill="#676568" opacity="1.000000" stroke="none" 
	d="
M2318.263184,927.638428 
	C2306.419922,901.805664 2315.161377,872.257690 2340.137695,858.074829 
	C2358.557373,847.615234 2382.497314,849.373596 2399.378174,862.841614 
	C2411.734131,872.699524 2418.643311,885.389404 2418.938232,901.202332 
	C2419.262695,918.589905 2419.012207,935.988220 2419.012207,953.693970 
	C2412.606445,953.693970 2405.533936,953.693970 2398.196289,953.693970 
	C2398.090820,952.044495 2397.987549,950.429260 2397.839600,948.116089 
	C2384.051514,956.904968 2369.558838,960.460022 2353.548584,956.294006 
	C2337.471191,952.110474 2325.815430,942.790100 2318.263184,927.638428 
M2339.416016,920.897156 
	C2340.739746,922.561462 2341.944336,924.339355 2343.406006,925.872192 
	C2355.574219,938.633667 2373.566895,939.925903 2387.389160,927.863037 
	C2394.808594,921.388306 2398.543213,912.339111 2397.811279,902.400208 
	C2397.180664,893.836914 2393.120850,886.521545 2386.384033,880.876343 
	C2372.046631,868.861877 2354.738770,871.057983 2343.008057,883.883911 
	C2333.375000,894.416504 2332.295898,907.231079 2339.416016,920.897156 
z"/>
<path fill="#676568" opacity="1.000000" stroke="none" 
	d="
M2008.718262,954.319946 
	C1993.494385,949.126404 1983.657959,938.465820 1978.384766,924.370056 
	C1970.494629,903.279480 1974.347412,883.440063 1989.837402,867.034424 
	C1998.480469,857.880371 2009.797852,852.900330 2022.894653,851.859131 
	C2043.496216,850.221313 2059.722168,857.636780 2071.555908,874.168945 
	C2085.190674,893.217346 2084.662109,920.459534 2068.793213,938.747070 
	C2055.801025,953.719482 2039.711426,960.280273 2019.962280,957.033630 
	C2016.287720,956.429565 2012.685303,955.385742 2008.718262,954.319946 
M1996.998535,900.481995 
	C1996.680176,902.239746 1995.838989,904.091125 1996.134277,905.739014 
	C1997.400024,912.804504 1999.277222,919.418884 2004.386230,925.183960 
	C2011.416626,933.117249 2024.086182,938.042480 2034.230713,935.331970 
	C2050.598633,930.958679 2059.239990,919.857178 2058.948975,902.806580 
	C2058.629395,884.105164 2041.348633,872.326294 2026.231567,873.186890 
	C2011.246094,874.039978 1999.669312,884.698669 1996.998535,900.481995 
z"/>
<path fill="#676568" opacity="1.000000" stroke="none" 
	d="
M1864.000000,880.000000 
	C1864.000000,871.865479 1864.000000,864.230896 1864.000000,855.894104 
	C1870.779053,857.161926 1877.426392,853.798279 1883.752563,857.738281 
	C1884.497314,858.202148 1886.308594,857.460327 1887.366699,856.837646 
	C1900.745728,848.964722 1914.691040,849.130371 1928.283691,855.300537 
	C1940.844727,861.002502 1948.755981,871.296753 1951.943848,884.864929 
	C1952.648804,887.865356 1952.939453,891.026001 1952.955078,894.115234 
	C1953.046509,912.274475 1953.000000,930.434387 1953.000000,948.594116 
	C1953.000000,950.221741 1953.000000,951.849304 1953.000000,953.735962 
	C1945.658447,953.735962 1938.721191,953.735962 1931.000000,953.735962 
	C1931.000000,952.107056 1931.000000,950.362366 1931.000000,948.617676 
	C1931.000000,930.791138 1931.004517,912.964661 1930.998291,895.138123 
	C1930.994751,885.263550 1924.636353,877.086609 1914.469482,873.852722 
	C1905.889160,871.123474 1895.148560,874.562378 1890.358154,882.602234 
	C1887.975952,886.600281 1886.306763,891.644714 1886.191162,896.262817 
	C1885.723999,914.910706 1885.988159,933.576965 1885.975464,952.236450 
	C1885.975220,952.564514 1885.889771,952.892578 1885.790039,953.610107 
	C1878.799927,953.610107 1871.742432,953.610107 1864.000000,953.610107 
	C1864.000000,929.330811 1864.000000,904.915405 1864.000000,880.000000 
z"/>
<path fill="#676568" opacity="1.000000" stroke="none" 
	d="
M2539.000000,891.257568 
	C2539.000000,912.223938 2539.000000,932.718567 2539.000000,953.606445 
	C2531.805908,953.606445 2524.746826,953.606445 2517.000000,953.606445 
	C2517.000000,951.993286 2517.000000,950.234314 2517.000000,948.475342 
	C2517.000000,930.309692 2516.700195,912.137146 2517.119629,893.981140 
	C2517.347412,884.110046 2504.558105,869.809753 2490.120117,873.331665 
	C2478.378418,876.195923 2471.734131,887.023621 2471.905518,896.933105 
	C2472.230957,915.736145 2472.000000,934.548767 2472.000000,953.677979 
	C2464.654785,953.677979 2457.598633,953.677979 2450.269287,953.677979 
	C2450.269287,921.331360 2450.269287,889.061035 2450.269287,856.043884 
	C2456.750977,857.075073 2463.508545,853.787964 2470.005127,857.784973 
	C2470.738525,858.236389 2472.517822,857.495117 2473.553711,856.874878 
	C2497.429688,842.576904 2530.855225,855.251099 2537.959961,884.525452 
	C2538.457275,886.575623 2538.660156,888.697327 2539.000000,891.257568 
z"/>
<path fill="#676568" opacity="1.000000" stroke="none" 
	d="
M2186.000000,865.043579 
	C2186.000000,861.908020 2186.000000,859.266235 2186.000000,856.012451 
	C2191.892822,856.012451 2197.513672,855.733765 2203.069824,856.208374 
	C2204.459717,856.327148 2205.642334,858.870483 2207.618652,861.080200 
	C2218.612549,854.422668 2231.359131,853.588318 2244.759766,856.528625 
	C2244.759766,864.175232 2244.759766,871.929749 2244.759766,879.459106 
	C2239.876221,878.627563 2235.124268,877.548096 2230.312256,877.053711 
	C2219.267822,875.919067 2208.059814,887.692871 2208.017578,899.250122 
	C2207.951660,917.236450 2208.000000,935.223206 2208.000000,953.604736 
	C2200.812012,953.604736 2193.754883,953.604736 2186.000000,953.604736 
	C2186.000000,924.351562 2186.000000,894.944458 2186.000000,865.043579 
z"/>
<path fill="#676568" opacity="1.000000" stroke="none" 
	d="
M2266.000000,904.000000 
	C2266.000000,875.870361 2266.000000,848.240784 2266.000000,820.306213 
	C2273.376953,820.306213 2280.431641,820.306213 2287.744385,820.306213 
	C2287.744385,864.687805 2287.744385,908.949036 2287.744385,953.605347 
	C2280.809814,953.605347 2273.752197,953.605347 2266.000000,953.605347 
	C2266.000000,937.338989 2266.000000,920.919495 2266.000000,904.000000 
z"/>
<path fill="#676568" opacity="1.000000" stroke="none" 
	d="
M2130.110840,858.978638 
	C2135.670410,857.601440 2140.784180,855.668701 2146.033447,855.175964 
	C2151.385742,854.673645 2156.870605,855.586792 2162.642578,855.898865 
	C2162.642578,863.889893 2162.642578,871.634277 2162.642578,879.169128 
	C2158.030762,878.464355 2153.252197,877.220398 2148.446289,877.103394 
	C2137.467529,876.836182 2127.637695,885.596008 2127.101562,896.544617 
	C2126.355713,911.773682 2126.317383,927.037903 2126.010986,942.287781 
	C2125.937500,945.940857 2126.000000,949.596741 2126.000000,953.625122 
	C2119.104248,953.625122 2112.382324,953.625122 2105.327393,953.625122 
	C2105.327393,921.346436 2105.327393,888.975159 2105.327393,856.010803 
	C2110.590332,856.010803 2115.891846,855.672424 2121.103271,856.209717 
	C2122.741455,856.378540 2124.137207,858.899048 2126.130859,860.809998 
	C2126.916260,860.426453 2128.320557,859.740784 2130.110840,858.978638 
z"/>
<path fill="#1D1D1B" opacity="1.000000" stroke="none" 
	d="
M2001.675537,496.980621 
	C1986.807739,496.753235 1976.554321,490.244385 1973.599365,477.976990 
	C1969.576172,461.274963 1979.869263,445.574890 1997.791382,444.887695 
	C2012.915527,444.307770 2022.618896,453.003510 2025.357422,463.938812 
	C2029.281738,479.609283 2020.396362,493.533325 2004.856689,496.025452 
	C2003.918091,496.175964 2003.030396,496.643982 2001.675537,496.980621 
z"/>
<path fill="#676568" opacity="1.000000" stroke="none" 
	d="
M1759.000000,939.993286 
	C1759.000000,944.795532 1759.000000,949.099487 1759.000000,953.698486 
	C1751.614380,953.698486 1744.560547,953.698486 1737.251587,953.698486 
	C1737.251587,921.303589 1737.251587,889.041443 1737.251587,856.389343 
	C1744.201172,856.389343 1751.258423,856.389343 1759.000000,856.389343 
	C1759.000000,884.001587 1759.000000,911.748291 1759.000000,939.993286 
z"/>
<path fill="#676568" opacity="1.000000" stroke="none" 
	d="
M1736.154297,822.664673 
	C1740.342896,814.478027 1743.288452,812.838379 1751.136108,813.995789 
	C1756.907593,814.846924 1760.334839,818.182434 1760.792114,825.042175 
	C1761.104126,829.721863 1759.106323,833.874878 1754.378784,836.235657 
	C1749.273560,838.784912 1744.532715,838.453552 1740.752563,835.321167 
	C1736.803345,832.048584 1735.566772,827.929504 1736.154297,822.664673 
z"/>
<path fill="#FFFFFF" opacity="1.000000" stroke="none" 
	d="
M2632.891357,932.021362 
	C2615.008057,943.245300 2589.328125,930.048157 2586.778564,908.775024 
	C2584.606689,890.653870 2599.238525,876.101013 2612.321289,873.756470 
	C2632.337402,870.169312 2652.074219,887.975647 2648.858398,909.209778 
	C2647.378418,918.981018 2641.873779,926.708801 2632.891357,932.021362 
z"/>
<path fill="#FFFFFF" opacity="1.000000" stroke="none" 
	d="
M1286.186523,719.346436 
	C1277.767944,721.082703 1269.675537,723.464783 1261.518066,723.713135 
	C1254.174805,723.936646 1246.510376,722.671021 1239.421631,720.586121 
	C1211.691284,712.430176 1192.515015,694.525757 1185.541504,666.420044 
	C1180.034546,644.224976 1185.285034,623.336487 1200.206299,605.152832 
	C1212.183472,590.557068 1227.611084,581.785278 1245.644043,578.365356 
	C1269.330444,573.873169 1291.039062,579.476868 1310.154053,594.592163 
	C1320.629395,602.875610 1328.224243,613.277283 1332.806030,625.633484 
	C1339.213135,642.912903 1339.242676,660.426208 1331.789062,677.446716 
	C1322.843384,697.874512 1307.478149,711.605042 1286.186523,719.346436 
z"/>
<path fill="#FFFFFF" opacity="1.000000" stroke="none" 
	d="
M1478.730957,602.768127 
	C1490.748047,589.257690 1505.701294,581.325134 1522.843140,578.189514 
	C1545.382690,574.066467 1566.060181,579.483948 1584.530273,593.047363 
	C1599.744629,604.220032 1609.130615,619.373779 1612.722656,637.667725 
	C1616.875732,658.817993 1611.064697,677.847656 1597.819946,694.645264 
	C1586.885864,708.512634 1572.535034,717.080933 1555.462769,721.161743 
	C1530.759521,727.066589 1508.384888,721.936584 1488.205566,706.702454 
	C1473.716797,695.764221 1464.732666,681.064270 1461.191895,663.577881 
	C1457.160645,643.669495 1461.966431,625.226562 1473.829834,608.704651 
	C1475.254639,606.720520 1476.920044,604.909180 1478.730957,602.768127 
z"/>
<path fill="#FFFFFF" opacity="1.000000" stroke="none" 
	d="
M676.015869,635.366760 
	C679.832336,626.642639 682.660461,617.707214 687.637939,610.196289 
	C698.533020,593.755859 714.376953,583.574707 733.524597,579.081848 
	C757.168396,573.533997 779.083313,578.435425 798.668030,592.402954 
	C814.673889,603.817993 824.691406,619.831177 827.766724,639.138489 
	C831.297607,661.306946 824.760803,681.006836 809.689941,697.879333 
	C797.372314,711.669495 781.812744,720.027588 763.984436,722.703918 
	C742.442444,725.937744 722.099976,721.183289 704.357605,707.815552 
	C690.254517,697.189758 680.252380,683.444458 676.839722,666.077942 
	C675.108521,657.268372 676.170044,647.909546 675.977600,638.798889 
	C675.956543,637.800354 675.992798,636.800720 676.015869,635.366760 
z"/>
<path fill="#FFFFFF" opacity="1.000000" stroke="none" 
	d="
M1836.279297,721.317139 
	C1822.373535,724.317871 1808.967529,724.206543 1795.614258,720.065491 
	C1785.462158,716.917175 1776.147705,712.274292 1768.031372,705.476013 
	C1756.367554,695.706665 1748.214233,683.423279 1744.082764,668.789246 
	C1738.249634,648.127869 1741.787476,628.726624 1753.607178,610.968201 
	C1765.649414,592.875610 1783.052734,582.054382 1804.031006,578.253540 
	C1828.659668,573.791443 1850.944702,579.954834 1870.239868,596.601807 
	C1883.839722,608.335388 1892.230591,623.069519 1894.723267,640.399963 
	C1897.379639,658.868713 1892.939575,676.381470 1881.703491,691.652954 
	C1870.821899,706.442627 1856.240723,715.997681 1838.614990,720.966675 
	C1837.992188,721.142212 1837.289307,721.033142 1836.279297,721.317139 
z"/>
<path fill="#FFFFFF" opacity="1.000000" stroke="none" 
	d="
M2314.672852,577.001465 
	C2326.041748,578.656921 2336.522705,581.583313 2346.219727,587.011658 
	C2357.087158,593.095093 2365.731201,601.558960 2372.870117,611.651245 
	C2373.288574,612.242859 2373.305664,613.118225 2373.532227,613.944153 
	C2329.482666,613.944153 2285.554199,613.944153 2240.956543,613.944153 
	C2258.852783,587.911438 2283.207031,575.924011 2314.672852,577.001465 
z"/>
<path fill="#FFFFFF" opacity="1.000000" stroke="none" 
	d="
M2339.231445,920.564697 
	C2332.295898,907.231079 2333.375000,894.416504 2343.008057,883.883911 
	C2354.738770,871.057983 2372.046631,868.861877 2386.384033,880.876343 
	C2393.120850,886.521545 2397.180664,893.836914 2397.811279,902.400208 
	C2398.543213,912.339111 2394.808594,921.388306 2387.389160,927.863037 
	C2373.566895,939.925903 2355.574219,938.633667 2343.406006,925.872192 
	C2341.944336,924.339355 2340.739746,922.561462 2339.231445,920.564697 
z"/>
<path fill="#FFFFFF" opacity="1.000000" stroke="none" 
	d="
M1996.999512,900.054810 
	C1999.669312,884.698669 2011.246094,874.039978 2026.231567,873.186890 
	C2041.348633,872.326294 2058.629395,884.105164 2058.948975,902.806580 
	C2059.239990,919.857178 2050.598633,930.958679 2034.230713,935.331970 
	C2024.086182,938.042480 2011.416626,933.117249 2004.386230,925.183960 
	C1999.277222,919.418884 1997.400024,912.804504 1996.134277,905.739014 
	C1995.838989,904.091125 1996.680176,902.239746 1996.999512,900.054810 
z"/>
</svg>