<svg version="1.1" id="Layer_1" xmlns="http://www.w3.org/2000/svg" xmlns:xlink="http://www.w3.org/1999/xlink" x="0px" y="0px"
	 width="100%" viewBox="587 404 2125 597" xml:space="preserve">
<path fill="#FFFFFF" opacity="1.000000" stroke="none" 
	d="
M2672.000000,759.531372 
	C2656.525635,760.000000 2641.051514,760.000000 2625.000000,760.000000 
	C2625.000000,758.002930 2625.000000,756.237000 2625.000000,754.471130 
	C2625.000000,712.477722 2625.028076,670.484253 2624.985596,628.490845 
	C2624.969482,612.573059 2617.605713,599.879700 2606.082031,589.832214 
	C2595.118652,580.273010 2581.728760,575.493958 2567.117432,576.106140 
	C2540.793213,577.209167 2519.085938,593.707092 2513.108398,620.106812 
	C2512.176270,624.223511 2512.052734,628.588318 2512.045166,632.839172 
	C2511.970947,674.992371 2512.000000,717.145813 2512.000000,759.649536 
	C2496.487305,759.649536 2481.084473,759.649536 2465.339844,759.649536 
	C2465.339844,687.134460 2465.339844,614.406372 2465.339844,541.000000 
	C2472.376709,541.000000 2479.631104,541.000000 2486.885498,541.000000 
	C2490.884766,541.000000 2494.925293,541.360474 2498.873535,540.911743 
	C2504.203857,540.306030 2506.905273,542.151123 2507.074707,547.619019 
	C2507.100342,548.446045 2507.939697,549.247986 2508.598633,550.406067 
	C2513.017578,547.577576 2517.035889,544.553162 2521.439941,542.273560 
	C2533.276855,536.146545 2545.612549,532.006836 2559.158203,530.838928 
	C2588.611816,528.299316 2614.493896,536.178528 2637.371094,554.799133 
	C2655.075684,569.209473 2665.261719,588.066101 2670.912842,609.743835 
	C2671.322998,611.317749 2671.137207,613.047119 2671.614258,614.852112 
	C2672.000000,663.020874 2672.000000,711.041809 2672.000000,759.531372 
z"/>
<path fill="#FFFFFF" opacity="1.000000" stroke="none" 
	d="
M2672.000000,903.531372 
	C2671.347168,907.096741 2670.474854,910.165588 2670.077393,913.294800 
	C2667.771729,931.438721 2657.374023,944.260559 2641.884277,952.249939 
	C2624.478760,961.227356 2606.544434,960.240906 2589.522461,949.992188 
	C2575.949707,941.820312 2567.655762,929.521423 2565.384521,914.202026 
	C2563.062500,898.540283 2565.703125,883.525940 2576.614014,870.759460 
	C2586.251221,859.483582 2598.112061,853.307007 2612.859131,851.910645 
	C2624.984131,850.762573 2636.104980,852.923096 2646.291992,859.673828 
	C2646.780518,859.997437 2647.550537,859.895996 2648.701416,860.069885 
	C2648.701416,846.811646 2648.701416,833.779419 2648.701416,820.702881 
	C2656.526123,820.702881 2663.865723,820.702881 2671.602539,820.851440 
	C2672.000000,827.021179 2672.000000,833.042297 2671.615479,839.735352 
	C2671.156738,852.941711 2671.067871,865.476196 2671.051758,878.010742 
	C2671.051025,878.673401 2671.669678,879.336853 2672.000000,880.000000 
	C2672.000000,887.687561 2672.000000,895.375183 2672.000000,903.531372 
M2633.261475,931.949219 
	C2641.873779,926.708801 2647.378418,918.981018 2648.858398,909.209778 
	C2652.074219,887.975647 2632.337402,870.169312 2612.321289,873.756470 
	C2599.238525,876.101013 2584.606689,890.653870 2586.778564,908.775024 
	C2589.328125,930.048157 2615.008057,943.245300 2633.261475,931.949219 
z"/>
<path fill="#FFFFFF" opacity="1.000000" stroke="none" 
	d="
M1333.353760,759.175720 
	C1334.812622,754.073730 1335.988892,749.263916 1337.374390,743.598816 
	C1324.329102,753.149841 1311.002075,760.035889 1296.302124,764.375793 
	C1278.674072,769.580322 1260.854126,769.984070 1242.764282,768.063477 
	C1220.093628,765.656616 1200.150635,756.724304 1182.269287,742.990601 
	C1159.541382,725.534485 1144.723755,702.851013 1139.117188,674.631348 
	C1137.343750,665.705261 1135.896240,656.457092 1136.209229,647.422546 
	C1137.106445,621.530640 1145.268677,598.073425 1161.755005,577.656494 
	C1179.682861,555.454346 1202.655273,541.266235 1230.113892,534.574463 
	C1243.940308,531.204956 1258.045166,530.138184 1272.508545,531.751404 
	C1288.938354,533.583923 1304.576294,537.636719 1319.514160,544.348328 
	C1325.342041,546.966858 1330.510010,551.056702 1335.969360,554.490967 
	C1337.321045,555.341187 1338.636963,556.248108 1340.682861,557.600647 
	C1341.523560,553.212097 1342.042969,549.295227 1343.101074,545.529663 
	C1343.569458,543.862427 1345.097900,541.223206 1346.197021,541.196960 
	C1358.978394,540.891907 1371.769653,541.001831 1385.000000,541.001831 
	C1385.000000,542.816406 1385.000000,544.266479 1385.000000,545.716553 
	C1385.000000,610.196838 1385.486938,674.682617 1384.761841,739.154724 
	C1384.469116,765.175781 1375.517212,788.775452 1358.515015,809.123840 
	C1346.146729,823.926636 1331.470093,835.473633 1314.004517,843.443970 
	C1303.260620,848.346985 1292.053711,851.899780 1280.195557,853.002014 
	C1273.025269,853.668518 1265.834961,855.066956 1258.688354,854.871094 
	C1230.262207,854.091980 1204.334351,845.585815 1181.682861,828.104492 
	C1169.775635,818.915039 1160.391357,807.363525 1151.650269,794.494202 
	C1161.660522,787.911377 1171.585327,781.356812 1181.543335,774.852905 
	C1184.624268,772.840576 1188.125488,769.090881 1190.830200,769.567078 
	C1193.424805,770.023926 1195.174805,774.976257 1197.401855,777.871582 
	C1210.158203,794.455322 1227.068359,804.756104 1247.526123,807.796997 
	C1277.405762,812.238403 1302.546143,802.138306 1322.009033,779.157471 
	C1326.786011,773.517029 1329.440796,766.079346 1333.353760,759.175720 
M1286.484253,719.063293 
	C1307.478149,711.605042 1322.843384,697.874512 1331.789062,677.446716 
	C1339.242676,660.426208 1339.213135,642.912903 1332.806030,625.633484 
	C1328.224243,613.277283 1320.629395,602.875610 1310.154053,594.592163 
	C1291.039062,579.476868 1269.330444,573.873169 1245.644043,578.365356 
	C1227.611084,581.785278 1212.183472,590.557068 1200.206299,605.152832 
	C1185.285034,623.336487 1180.034546,644.224976 1185.541504,666.420044 
	C1192.515015,694.525757 1211.691284,712.430176 1239.421631,720.586121 
	C1246.510376,722.671021 1254.174805,723.936646 1261.518066,723.713135 
	C1269.675537,723.464783 1277.767944,721.082703 1286.484253,719.063293 
z"/>
<path fill="#FFFFFF" opacity="1.000000" stroke="none" 
	d="
M1653.929199,541.000000 
	C1656.403809,541.000000 1658.386841,541.000000 1660.746216,541.000000 
	C1660.837036,542.593628 1660.989746,544.024048 1660.989990,545.454529 
	C1661.001587,611.434814 1661.182739,677.415955 1660.841797,743.394531 
	C1660.775635,756.179688 1657.019531,768.466492 1652.311523,780.519714 
	C1645.245239,798.610046 1633.130615,812.780090 1619.000244,825.309265 
	C1604.411255,838.244995 1587.194336,846.801392 1568.108521,850.853333 
	C1557.955078,853.008911 1547.470337,854.882629 1537.158447,854.768311 
	C1508.062866,854.446045 1481.500732,846.062744 1458.178467,827.888062 
	C1446.918823,819.113708 1438.116211,808.365906 1429.796997,797.064636 
	C1429.216309,796.275879 1429.992554,793.392944 1430.983032,792.710205 
	C1442.156250,785.009094 1453.447876,777.474243 1464.874634,770.155640 
	C1465.845215,769.534058 1468.859985,770.248779 1469.501099,771.252380 
	C1476.857544,782.767822 1486.299683,791.930054 1498.176392,798.778809 
	C1506.709229,803.699280 1515.890259,806.373901 1525.446533,807.963074 
	C1539.268433,810.261597 1552.556763,808.064331 1565.597412,803.125366 
	C1582.706543,796.645630 1596.014526,785.724243 1604.583008,769.621765 
	C1608.168213,762.884094 1610.245728,755.338867 1612.914307,748.125854 
	C1613.233032,747.264404 1612.957642,746.183044 1612.957642,744.754333 
	C1606.655396,748.533447 1600.937988,752.421631 1594.827393,755.538879 
	C1577.226196,764.517761 1558.634888,768.967590 1538.677856,769.207031 
	C1516.836060,769.469116 1496.392822,765.003113 1477.189331,754.961670 
	C1455.870117,743.813965 1439.194458,727.719788 1427.248779,706.720520 
	C1415.144287,685.442078 1410.970459,662.390198 1413.197510,638.421204 
	C1415.185425,617.026733 1423.091309,597.601501 1436.137207,580.187622 
	C1448.160767,564.138489 1463.361572,552.190125 1481.130249,543.556763 
	C1494.534546,537.043884 1508.793579,533.311035 1523.841309,531.821289 
	C1550.395142,529.192322 1575.231567,534.325562 1598.858276,546.076111 
	C1604.890015,549.075928 1610.387695,553.149597 1617.024902,557.287354 
	C1618.153564,551.878418 1619.263672,546.557983 1620.423340,541.000000 
	C1631.480835,541.000000 1642.459229,541.000000 1653.929199,541.000000 
M1478.473877,603.017761 
	C1476.920044,604.909180 1475.254639,606.720520 1473.829834,608.704651 
	C1461.966431,625.226562 1457.160645,643.669495 1461.191895,663.577881 
	C1464.732666,681.064270 1473.716797,695.764221 1488.205566,706.702454 
	C1508.384888,721.936584 1530.759521,727.066589 1555.462769,721.161743 
	C1572.535034,717.080933 1586.885864,708.512634 1597.819946,694.645264 
	C1611.064697,677.847656 1616.875732,658.817993 1612.722656,637.667725 
	C1609.130615,619.373779 1599.744629,604.220032 1584.530273,593.047363 
	C1566.060181,579.483948 1545.382690,574.066467 1522.843140,578.189514 
	C1505.701294,581.325134 1490.748047,589.257690 1478.473877,603.017761 
z"/>
<path fill="#FFFFFF" opacity="1.000000" stroke="none" 
	d="
M653.715454,724.218018 
	C641.482178,708.781616 633.126892,691.837585 629.462341,672.816589 
	C628.075684,665.619019 627.125488,658.211548 627.104187,650.896484 
	C626.922424,588.413086 627.000061,525.928955 627.000122,463.445007 
	C627.000122,462.474426 627.000122,461.503845 627.000122,460.267456 
	C643.014893,460.267456 658.748047,460.267456 674.874512,460.267456 
	C674.874512,492.010925 674.874512,523.724182 674.874512,556.068726 
	C687.239197,547.539673 699.763733,540.900024 713.598511,536.673523 
	C728.989319,531.971619 744.719238,529.941711 760.598389,531.153870 
	C787.685791,533.221619 812.365784,542.529358 833.300476,560.012024 
	C854.279785,577.532104 868.237061,599.908386 873.776794,626.784302 
	C878.521057,649.800659 876.110657,672.438965 867.276794,694.370178 
	C860.574097,711.010742 850.483826,725.332886 837.192566,737.105835 
	C819.850525,752.466980 799.851929,763.427002 776.705261,766.784485 
	C763.719543,768.668152 750.296875,769.748230 737.275024,768.687256 
	C714.180115,766.805420 693.006409,758.344421 674.673706,743.955078 
	C667.249817,738.128052 660.845947,731.001526 653.715454,724.218018 
M676.002441,635.801575 
	C675.992798,636.800720 675.956543,637.800354 675.977600,638.798889 
	C676.170044,647.909546 675.108521,657.268372 676.839722,666.077942 
	C680.252380,683.444458 690.254517,697.189758 704.357605,707.815552 
	C722.099976,721.183289 742.442444,725.937744 763.984436,722.703918 
	C781.812744,720.027588 797.372314,711.669495 809.689941,697.879333 
	C824.760803,681.006836 831.297607,661.306946 827.766724,639.138489 
	C824.691406,619.831177 814.673889,603.817993 798.668030,592.402954 
	C779.083313,578.435425 757.168396,573.533997 733.524597,579.081848 
	C714.376953,583.574707 698.533020,593.755859 687.637939,610.196289 
	C682.660461,617.707214 679.832336,626.642639 676.002441,635.801575 
z"/>
<path fill="#FFFFFF" opacity="1.000000" stroke="none" 
	d="
M1811.054688,769.000000 
	C1785.295410,768.324707 1762.915039,759.350281 1742.537231,744.960144 
	C1727.473511,734.322571 1715.320923,720.710266 1707.355591,704.224426 
	C1702.175781,693.503967 1698.614380,681.693237 1696.311768,669.980957 
	C1694.173340,659.103638 1694.128906,647.710999 1694.090332,636.542053 
	C1693.894409,579.724976 1694.000000,522.906860 1694.000000,466.089142 
	C1694.000000,464.270660 1694.000000,462.452179 1694.000000,460.318665 
	C1709.576538,460.318665 1724.977295,460.318665 1740.916260,460.318665 
	C1740.916260,492.042328 1740.916260,523.892578 1740.916260,555.685730 
	C1749.037842,551.281128 1756.640625,546.845703 1764.514404,542.959106 
	C1777.076782,536.758057 1790.447510,533.536865 1804.400513,531.872192 
	C1826.827759,529.196472 1848.392090,532.418274 1868.836182,541.271423 
	C1879.238770,545.776245 1888.938965,552.289490 1898.204712,558.942139 
	C1911.671387,568.611084 1922.225342,581.399780 1929.314331,596.234253 
	C1934.525024,607.137817 1937.618408,619.139526 1940.825806,630.878540 
	C1942.482788,636.943359 1943.052490,643.521667 1942.876953,649.833618 
	C1942.067505,678.955994 1933.202148,705.008972 1913.487915,727.168823 
	C1898.308716,744.231140 1879.943115,755.829529 1858.507080,763.231628 
	C1843.189697,768.520874 1827.499146,769.526367 1811.054688,769.000000 
M1836.623779,721.056702 
	C1837.289307,721.033142 1837.992188,721.142212 1838.614990,720.966675 
	C1856.240723,715.997681 1870.821899,706.442627 1881.703491,691.652954 
	C1892.939575,676.381470 1897.379639,658.868713 1894.723267,640.399963 
	C1892.230591,623.069519 1883.839722,608.335388 1870.239868,596.601807 
	C1850.944702,579.954834 1828.659668,573.791443 1804.031006,578.253540 
	C1783.052734,582.054382 1765.649414,592.875610 1753.607178,610.968201 
	C1741.787476,628.726624 1738.249634,648.127869 1744.082764,668.789246 
	C1748.214233,683.423279 1756.367554,695.706665 1768.031372,705.476013 
	C1776.147705,712.274292 1785.462158,716.917175 1795.614258,720.065491 
	C1808.967529,724.206543 1822.373535,724.317871 1836.623779,721.056702 
z"/>
<path fill="#FFFFFF" opacity="1.000000" stroke="none" 
	d="
M2184.218506,665.492065 
	C2184.022705,656.400635 2183.522217,647.700928 2184.116699,639.076599 
	C2184.976074,626.603394 2188.457031,614.647217 2193.398193,603.171082 
	C2198.849854,590.510254 2206.528076,579.137146 2216.236816,569.528564 
	C2227.905518,557.980286 2240.999512,548.347778 2256.384521,541.669800 
	C2275.227783,533.490906 2294.752930,530.079041 2314.950684,531.143860 
	C2340.044434,532.466675 2362.944336,540.676208 2383.277100,555.736206 
	C2399.865234,568.022339 2412.975830,583.139954 2421.498291,602.023682 
	C2426.504395,613.116028 2430.157227,624.625977 2430.995117,636.871521 
	C2431.510254,644.404724 2431.956543,651.942688 2432.462158,659.925293 
	C2365.256836,659.925293 2298.845947,659.925293 2232.006592,659.925293 
	C2231.896973,669.062988 2235.574219,676.632263 2239.531250,683.910767 
	C2246.967041,697.587402 2258.170654,707.736084 2271.832764,714.856018 
	C2281.315430,719.797974 2291.549072,722.379089 2302.457275,723.200439 
	C2317.304932,724.318359 2331.153076,721.478821 2344.124023,714.860901 
	C2357.538574,708.016602 2368.158203,697.845764 2375.845703,684.714783 
	C2376.616943,683.397766 2378.753906,682.133484 2380.271973,682.115723 
	C2396.267822,681.928711 2412.266602,682.000061 2428.708740,682.000061 
	C2422.907227,696.918213 2416.369385,711.060791 2406.195312,723.416748 
	C2389.877197,743.234253 2369.358154,756.549011 2344.969238,763.992126 
	C2323.389648,770.578003 2301.579346,770.648743 2279.493408,766.288635 
	C2259.842285,762.409241 2242.296875,753.876587 2227.205078,741.347290 
	C2205.894287,723.655090 2190.915771,701.456787 2185.980469,673.486572 
	C2185.532715,670.949768 2184.932617,668.439880 2184.218506,665.492065 
M2314.205078,577.000122 
	C2283.207031,575.924011 2258.852783,587.911438 2240.956543,613.944153 
	C2285.554199,613.944153 2329.482666,613.944153 2373.532227,613.944153 
	C2373.305664,613.118225 2373.288574,612.242859 2372.870117,611.651245 
	C2365.731201,601.558960 2357.087158,593.095093 2346.219727,587.011658 
	C2336.522705,581.583313 2326.041748,578.656921 2314.205078,577.000122 
z"/>
<path fill="#FFFFFF" opacity="1.000000" stroke="none" 
	d="
M1103.000000,737.000000 
	C1103.000000,746.497681 1103.350464,755.511780 1102.929688,764.489746 
	C1101.944702,785.506958 1095.831299,804.859863 1082.803345,821.653748 
	C1068.773193,839.739624 1050.114990,849.909973 1027.570923,852.951111 
	C1018.655945,854.153687 1009.658997,854.748596 1000.312256,855.657898 
	C1000.312256,839.746643 1000.312256,824.678467 1000.312256,809.035583 
	C1016.691406,809.514954 1032.872681,807.662292 1044.197998,794.041565 
	C1053.551514,782.792236 1056.227905,768.957458 1056.026367,755.394775 
	C1044.824219,759.266541 1033.791260,763.756836 1022.378845,766.845276 
	C1009.391602,770.359802 996.012024,769.561707 982.692993,768.066833 
	C966.264282,766.223022 951.377808,760.231140 938.000427,750.903503 
	C916.524109,735.928650 902.702942,715.407654 897.179077,689.773499 
	C895.501465,681.988708 895.132324,673.807800 895.091736,665.803589 
	C894.890564,626.148132 895.000000,586.491089 895.000000,546.834595 
	C895.000000,545.040344 895.000000,543.246155 895.000000,541.228638 
	C911.093994,541.228638 926.826843,541.228638 943.000000,541.228638 
	C943.000000,543.155762 943.000000,544.940186 943.000000,546.724609 
	C943.000000,588.047363 943.124146,629.370667 942.916260,670.692383 
	C942.861450,681.588318 946.494690,691.121033 952.434814,699.722046 
	C960.601257,711.546570 972.305237,718.828369 986.217712,721.900574 
	C1002.851440,725.573853 1018.609924,723.097473 1032.649780,712.829651 
	C1047.642456,701.865112 1056.025879,687.400879 1056.010254,668.479919 
	C1055.976685,627.990295 1056.000000,587.500732 1056.000000,547.011108 
	C1056.000000,545.200806 1056.000000,543.390503 1056.000000,541.291016 
	C1071.633423,541.291016 1087.033813,541.291016 1103.000000,541.291016 
	C1103.000000,606.335571 1103.000000,671.417786 1103.000000,737.000000 
z"/>
<path fill="#FFFFFF" opacity="1.000000" stroke="none" 
	d="
M2078.000000,747.985657 
	C2078.000000,694.200500 2078.000000,640.912292 2078.000000,587.205566 
	C2070.750977,587.205566 2063.675049,587.205566 2056.302979,587.205566 
	C2056.302979,571.727539 2056.302979,556.662964 2056.302979,541.177917 
	C2063.279053,541.177917 2070.353760,541.177917 2077.829590,541.177917 
	C2077.829590,514.036560 2077.829590,487.308014 2077.829590,460.290924 
	C2093.630615,460.290924 2109.028076,460.290924 2124.834961,460.290924 
	C2124.834961,486.969147 2124.834961,513.697693 2124.834961,540.836426 
	C2143.300781,540.836426 2161.367188,540.836426 2179.714844,540.836426 
	C2179.714844,556.309265 2179.714844,571.373413 2179.714844,586.851929 
	C2161.683594,586.851929 2143.617188,586.851929 2125.163818,586.851929 
	C2125.163818,644.644348 2125.163818,702.026672 2125.163818,759.703979 
	C2109.379883,759.703979 2093.982178,759.703979 2078.000000,759.703979 
	C2078.000000,756.020325 2078.000000,752.251465 2078.000000,747.985657 
z"/>
<path fill="#FFFFFF" opacity="1.000000" stroke="none" 
	d="
M2023.000000,577.000000 
	C2023.000000,638.130249 2023.000000,698.760498 2023.000000,759.695251 
	C2007.394897,759.695251 1991.994507,759.695251 1976.296143,759.695251 
	C1976.296143,687.052795 1976.296143,614.331421 1976.296143,541.304810 
	C1991.604980,541.304810 2007.005371,541.304810 2023.000000,541.304810 
	C2023.000000,552.977844 2023.000000,564.738953 2023.000000,577.000000 
z"/>
<path fill="#FFFFFF" opacity="1.000000" stroke="none" 
	d="
M2318.263184,927.638428 
	C2306.419922,901.805664 2315.161377,872.257690 2340.137695,858.074829 
	C2358.557373,847.615234 2382.497314,849.373596 2399.378174,862.841614 
	C2411.734131,872.699524 2418.643311,885.389404 2418.938232,901.202332 
	C2419.262695,918.589905 2419.012207,935.988220 2419.012207,953.693970 
	C2412.606445,953.693970 2405.533936,953.693970 2398.196289,953.693970 
	C2398.090820,952.044495 2397.987549,950.429260 2397.839600,948.116089 
	C2384.051514,956.904968 2369.558838,960.460022 2353.548584,956.294006 
	C2337.471191,952.110474 2325.815430,942.790100 2318.263184,927.638428 
M2339.416016,920.897156 
	C2340.739746,922.561462 2341.944336,924.339355 2343.406006,925.872192 
	C2355.574219,938.633667 2373.566895,939.925903 2387.389160,927.863037 
	C2394.808594,921.388306 2398.543213,912.339111 2397.811279,902.400208 
	C2397.180664,893.836914 2393.120850,886.521545 2386.384033,880.876343 
	C2372.046631,868.861877 2354.738770,871.057983 2343.008057,883.883911 
	C2333.375000,894.416504 2332.295898,907.231079 2339.416016,920.897156 
z"/>
<path fill="#FFFFFF" opacity="1.000000" stroke="none" 
	d="
M2008.718262,954.319946 
	C1993.494385,949.126404 1983.657959,938.465820 1978.384766,924.370056 
	C1970.494629,903.279480 1974.347412,883.440063 1989.837402,867.034424 
	C1998.480469,857.880371 2009.797852,852.900330 2022.894653,851.859131 
	C2043.496216,850.221313 2059.722168,857.636780 2071.555908,874.168945 
	C2085.190674,893.217346 2084.662109,920.459534 2068.793213,938.747070 
	C2055.801025,953.719482 2039.711426,960.280273 2019.962280,957.033630 
	C2016.287720,956.429565 2012.685303,955.385742 2008.718262,954.319946 
M1996.998535,900.481995 
	C1996.680176,902.239746 1995.838989,904.091125 1996.134277,905.739014 
	C1997.400024,912.804504 1999.277222,919.418884 2004.386230,925.183960 
	C2011.416626,933.117249 2024.086182,938.042480 2034.230713,935.331970 
	C2050.598633,930.958679 2059.239990,919.857178 2058.948975,902.806580 
	C2058.629395,884.105164 2041.348633,872.326294 2026.231567,873.186890 
	C2011.246094,874.039978 1999.669312,884.698669 1996.998535,900.481995 
z"/>
<path fill="#FFFFFF" opacity="1.000000" stroke="none" 
	d="
M1864.000000,880.000000 
	C1864.000000,871.865479 1864.000000,864.230896 1864.000000,855.894104 
	C1870.779053,857.161926 1877.426392,853.798279 1883.752563,857.738281 
	C1884.497314,858.202148 1886.308594,857.460327 1887.366699,856.837646 
	C1900.745728,848.964722 1914.691040,849.130371 1928.283691,855.300537 
	C1940.844727,861.002502 1948.755981,871.296753 1951.943848,884.864929 
	C1952.648804,887.865356 1952.939453,891.026001 1952.955078,894.115234 
	C1953.046509,912.274475 1953.000000,930.434387 1953.000000,948.594116 
	C1953.000000,950.221741 1953.000000,951.849304 1953.000000,953.735962 
	C1945.658447,953.735962 1938.721191,953.735962 1931.000000,953.735962 
	C1931.000000,952.107056 1931.000000,950.362366 1931.000000,948.617676 
	C1931.000000,930.791138 1931.004517,912.964661 1930.998291,895.138123 
	C1930.994751,885.263550 1924.636353,877.086609 1914.469482,873.852722 
	C1905.889160,871.123474 1895.148560,874.562378 1890.358154,882.602234 
	C1887.975952,886.600281 1886.306763,891.644714 1886.191162,896.262817 
	C1885.723999,914.910706 1885.988159,933.576965 1885.975464,952.236450 
	C1885.975220,952.564514 1885.889771,952.892578 1885.790039,953.610107 
	C1878.799927,953.610107 1871.742432,953.610107 1864.000000,953.610107 
	C1864.000000,929.330811 1864.000000,904.915405 1864.000000,880.000000 
z"/>
<path fill="#FFFFFF" opacity="1.000000" stroke="none" 
	d="
M2539.000000,891.257568 
	C2539.000000,912.223938 2539.000000,932.718567 2539.000000,953.606445 
	C2531.805908,953.606445 2524.746826,953.606445 2517.000000,953.606445 
	C2517.000000,951.993286 2517.000000,950.234314 2517.000000,948.475342 
	C2517.000000,930.309692 2516.700195,912.137146 2517.119629,893.981140 
	C2517.347412,884.110046 2504.558105,869.809753 2490.120117,873.331665 
	C2478.378418,876.195923 2471.734131,887.023621 2471.905518,896.933105 
	C2472.230957,915.736145 2472.000000,934.548767 2472.000000,953.677979 
	C2464.654785,953.677979 2457.598633,953.677979 2450.269287,953.677979 
	C2450.269287,921.331360 2450.269287,889.061035 2450.269287,856.043884 
	C2456.750977,857.075073 2463.508545,853.787964 2470.005127,857.784973 
	C2470.738525,858.236389 2472.517822,857.495117 2473.553711,856.874878 
	C2497.429688,842.576904 2530.855225,855.251099 2537.959961,884.525452 
	C2538.457275,886.575623 2538.660156,888.697327 2539.000000,891.257568 
z"/>
<path fill="#FFFFFF" opacity="1.000000" stroke="none" 
	d="
M2186.000000,865.043579 
	C2186.000000,861.908020 2186.000000,859.266235 2186.000000,856.012451 
	C2191.892822,856.012451 2197.513672,855.733765 2203.069824,856.208374 
	C2204.459717,856.327148 2205.642334,858.870483 2207.618652,861.080200 
	C2218.612549,854.422668 2231.359131,853.588318 2244.759766,856.528625 
	C2244.759766,864.175232 2244.759766,871.929749 2244.759766,879.459106 
	C2239.876221,878.627563 2235.124268,877.548096 2230.312256,877.053711 
	C2219.267822,875.919067 2208.059814,887.692871 2208.017578,899.250122 
	C2207.951660,917.236450 2208.000000,935.223206 2208.000000,953.604736 
	C2200.812012,953.604736 2193.754883,953.604736 2186.000000,953.604736 
	C2186.000000,924.351562 2186.000000,894.944458 2186.000000,865.043579 
z"/>
<path fill="#FFFFFF" opacity="1.000000" stroke="none" 
	d="
M2266.000000,904.000000 
	C2266.000000,875.870361 2266.000000,848.240784 2266.000000,820.306213 
	C2273.376953,820.306213 2280.431641,820.306213 2287.744385,820.306213 
	C2287.744385,864.687805 2287.744385,908.949036 2287.744385,953.605347 
	C2280.809814,953.605347 2273.752197,953.605347 2266.000000,953.605347 
	C2266.000000,937.338989 2266.000000,920.919495 2266.000000,904.000000 
z"/>
<path fill="#FFFFFF" opacity="1.000000" stroke="none" 
	d="
M2130.110840,858.978638 
	C2135.670410,857.601440 2140.784180,855.668701 2146.033447,855.175964 
	C2151.385742,854.673645 2156.870605,855.586792 2162.642578,855.898865 
	C2162.642578,863.889893 2162.642578,871.634277 2162.642578,879.169128 
	C2158.030762,878.464355 2153.252197,877.220398 2148.446289,877.103394 
	C2137.467529,876.836182 2127.637695,885.596008 2127.101562,896.544617 
	C2126.355713,911.773682 2126.317383,927.037903 2126.010986,942.287781 
	C2125.937500,945.940857 2126.000000,949.596741 2126.000000,953.625122 
	C2119.104248,953.625122 2112.382324,953.625122 2105.327393,953.625122 
	C2105.327393,921.346436 2105.327393,888.975159 2105.327393,856.010803 
	C2110.590332,856.010803 2115.891846,855.672424 2121.103271,856.209717 
	C2122.741455,856.378540 2124.137207,858.899048 2126.130859,860.809998 
	C2126.916260,860.426453 2128.320557,859.740784 2130.110840,858.978638 
z"/>
<path fill="#FFFFFF" opacity="1.000000" stroke="none" 
	d="
M2001.675537,496.980621 
	C1986.807739,496.753235 1976.554321,490.244385 1973.599365,477.976990 
	C1969.576172,461.274963 1979.869263,445.574890 1997.791382,444.887695 
	C2012.915527,444.307770 2022.618896,453.003510 2025.357422,463.938812 
	C2029.281738,479.609283 2020.396362,493.533325 2004.856689,496.025452 
	C2003.918091,496.175964 2003.030396,496.643982 2001.675537,496.980621 
z"/>
<path fill="#FFFFFF" opacity="1.000000" stroke="none" 
	d="
M1759.000000,939.993286 
	C1759.000000,944.795532 1759.000000,949.099487 1759.000000,953.698486 
	C1751.614380,953.698486 1744.560547,953.698486 1737.251587,953.698486 
	C1737.251587,921.303589 1737.251587,889.041443 1737.251587,856.389343 
	C1744.201172,856.389343 1751.258423,856.389343 1759.000000,856.389343 
	C1759.000000,884.001587 1759.000000,911.748291 1759.000000,939.993286 
z"/>
<path fill="#FFFFFF" opacity="1.000000" stroke="none" 
	d="
M1736.154297,822.664673 
	C1740.342896,814.478027 1743.288452,812.838379 1751.136108,813.995789 
	C1756.907593,814.846924 1760.334839,818.182434 1760.792114,825.042175 
	C1761.104126,829.721863 1759.106323,833.874878 1754.378784,836.235657 
	C1749.273560,838.784912 1744.532715,838.453552 1740.752563,835.321167 
	C1736.803345,832.048584 1735.566772,827.929504 1736.154297,822.664673 
z"/>
</svg>